<svg width="1200" height="294" viewBox="0 0 1200 294" fill="none" xmlns="http://www.w3.org/2000/svg">
<path d="M839.445 136.639V93.23H882.872V124.184C894.924 100.373 919.065 88.3945 945.147 88.3945C986.614 88.3945 1017.94 117.7 1017.94 158.765V286.977H973.353V175.194C973.353 147.848 957.272 130.173 929.926 130.173C903.789 130.173 884.136 148.654 884.136 176.806V287.013H839.5L839.445 136.639Z" fill="white" fill-opacity="0.05"/>
<path d="M737.836 88.7982C711.296 88.7982 685.159 101.271 671.477 123.379V5.57031L626.859 5.57031V287.014H669.077V252.452C681.899 277.783 710.087 291.849 737.836 291.849C792.509 291.849 829.892 246.81 829.892 190.067C829.892 133.837 792.509 88.7982 737.836 88.7982ZM727.781 250.437C694.409 250.437 670.287 223.494 670.287 190.122C670.287 156.751 694.098 130.211 727.781 130.211C761.464 130.211 785.275 156.751 785.275 190.122C785.275 223.494 761.152 250.437 727.781 250.437Z" fill="white" fill-opacity="0.05"/>
<path d="M412.906 203.783C414.004 195.454 414.299 187.038 413.785 178.653C413.177 168.328 411.112 158.141 407.649 148.395C394.663 112.148 362.573 87.9523 318.908 87.5859H318.029C261.249 87.5859 220.312 133.376 220.312 190.156C220.312 247.246 262.129 293.091 320.831 293.091C360.247 293.091 394.81 275.801 412.1 237.191C397.946 235.923 384.174 231.917 371.548 225.396C362.848 242.228 344.953 254.078 321.637 254.078C291.489 254.078 268.521 234.792 263.337 203.819L412.906 203.783ZM264.949 167.151C271.396 142.882 288.21 127.203 313.028 125.5C314.53 125.39 316.069 125.335 317.626 125.335C345.759 125.335 364.662 141.417 370.285 167.151L264.949 167.151Z" fill="white" fill-opacity="0.05"/>
<path d="M616.171 203.783C617.269 195.454 617.564 187.038 617.05 178.653C616.442 168.328 614.376 158.141 610.914 148.395C597.928 112.148 565.838 87.9523 522.154 87.5859H521.275C464.587 87.5859 423.578 133.376 423.578 190.156C423.578 247.246 465.393 293.091 524.096 293.091C563.494 293.091 598.075 275.801 615.365 237.191C601.211 235.926 587.437 231.92 574.813 225.396C566.095 242.228 548.218 254.078 524.902 254.078C494.754 254.078 471.785 234.792 466.602 203.819L616.171 203.783ZM468.214 167.151C474.661 142.882 491.475 127.203 516.275 125.5C517.795 125.39 519.316 125.335 520.891 125.335C549.024 125.335 567.926 141.417 573.549 167.151L468.214 167.151Z" fill="white" fill-opacity="0.05"/>
<path d="M248.111 104.093C246.591 105.43 245.108 106.804 243.679 108.232L243.258 108.672C243.001 108.91 242.764 109.166 242.525 109.404C241.976 109.954 241.444 110.522 240.913 111.09C233.123 119.43 226.701 128.95 221.883 139.296C216.119 136.897 209.919 135.725 203.677 135.853C171.111 135.853 161.056 167.265 161.056 200.984V287.07H116.437L116.438 93.2314H159.847V126.2C168.657 105.283 185.984 90.0078 210.509 90.0078C227.799 90.0078 240.675 95.2279 247.91 103.672L248.111 104.093Z" fill="white" fill-opacity="0.05"/>
<path d="M143.817 16.4116C141.241 18.6095 138.799 20.9235 136.491 23.3534L135.227 24.6172L134.238 25.6978C128.345 32.1812 123.264 39.3591 119.109 47.0726C113.749 43.8324 107.586 42.1633 101.324 42.2555C81.6158 42.2555 71.1578 54.3074 71.1578 78.4479V93.3205H107.039L107.039 133.616L71.1024 133.616L71.1024 287.195H26.5949L26.5949 133.433H0L0 93.1373H26.5949L26.5949 77.1841C26.5949 28.9397 55.1314 0.000476453 97.7527 0.000476453C121.655 -0.0727875 136.912 8.31594 143.817 16.4116Z" fill="white" fill-opacity="0.05"/>
<path fill-rule="evenodd" clip-rule="evenodd" d="M1027.52 5.57031L1072.15 5.57031V191.46C1091.65 190.646 1110.27 183.024 1124.75 169.889C1139.65 156.382 1149.16 137.955 1151.56 117.993C1152.06 113.734 1152.06 109.43 1151.56 105.172C1151.45 104.127 1151.3 103.065 1151.14 102.021C1150.69 99.0658 1150.07 96.1371 1149.31 93.2478L1198.23 93.2478C1198.74 96.1234 1199.07 98.8708 1199.4 102.021C1199.73 105.172 1200 108.358 1200 111.564C1199.75 122.013 1198.23 132.393 1195.5 142.481C1195.43 142.775 1195.34 143.068 1195.25 143.361C1195.2 143.507 1195.16 143.654 1195.11 143.8C1185.83 173.362 1164.16 192.191 1136.21 204.719C1133.26 206.056 1130.26 207.228 1127.18 208.291C1130.26 209.444 1133.26 210.617 1136.21 211.954C1164.16 224.482 1185.83 243.311 1195.11 272.873C1195.16 273.019 1195.2 273.165 1195.25 273.311C1195.34 273.605 1195.43 273.898 1195.5 274.191C1196.65 278.415 1197.58 282.694 1198.28 287.013H1149.25C1144.53 269.619 1134.31 254.22 1120.11 243.112C1106.35 232.346 1089.58 226.171 1072.15 225.433V287.014H1027.52V5.57031Z" fill="white" fill-opacity="0.05"/>
</svg>
