<svg width="37" height="37" viewBox="0 0 37 37" fill="none" xmlns="http://www.w3.org/2000/svg">
<path fill-rule="evenodd" clip-rule="evenodd" d="M18.4998 36.0973C28.3848 36.0973 36.3981 28.084 36.3981 18.199C36.3981 8.3141 28.3848 0.300781 18.4998 0.300781C8.61489 0.300781 0.601562 8.3141 0.601562 18.199C0.601562 28.084 8.61489 36.0973 18.4998 36.0973ZM11.7764 7.03095C12.3699 6.7448 13.0504 6.77553 13.6215 7.11927L24.9817 13.7347L21.7279 17.0037L11.7764 7.03095ZM10.6689 8.81978C10.6689 8.51544 10.7365 8.21975 10.862 7.95394L20.8114 17.9245L10.8638 27.9193C10.7369 27.6591 10.6689 27.3678 10.6689 27.0621V8.81978ZM11.7937 28.8267L21.7292 18.844L24.9839 22.1061L13.6215 28.7315C13.3089 28.9194 12.9639 29.002 12.618 29.002C12.3379 29.002 12.0574 28.9488 11.7937 28.8267ZM29.2962 16.2469C29.3001 16.2491 29.3044 16.2517 29.3083 16.2543C29.8949 16.6102 30.2452 17.2327 30.2452 17.9193C30.2452 18.6059 29.8949 19.2285 29.3083 19.5847L26.1441 21.4294L22.6453 17.9232L26.142 14.4101L29.2962 16.2469Z" fill="#091D26"/>
</svg>
