<svg width="37" height="36" viewBox="0 0 37 36" fill="none" xmlns="http://www.w3.org/2000/svg">
<path fill-rule="evenodd" clip-rule="evenodd" d="M18.4998 35.9137C28.3848 35.9137 36.3981 27.9004 36.3981 18.0154C36.3981 8.13051 28.3848 0.117188 18.4998 0.117188C8.61489 0.117188 0.601562 8.13051 0.601562 18.0154C0.601562 27.9004 8.61489 35.9137 18.4998 35.9137ZM21.0516 6.78318C21.4559 7.01656 21.7451 7.39354 21.8659 7.84449C21.9868 8.29544 21.9247 8.76653 21.6913 9.17085L15.6971 19.5531H19.4781L21.4964 23.0489H8.2223C7.25852 23.0489 6.47442 22.2648 6.47442 21.301C6.47442 20.3372 7.25852 19.5531 8.2223 19.5531H11.6606L16.3766 11.3846L15.0985 9.17078C14.6167 8.33606 14.9037 7.26503 15.7383 6.78311C16.573 6.30132 17.644 6.58833 18.1259 7.4229L18.3949 7.88889L18.664 7.42297C19.146 6.58819 20.2171 6.30132 21.0516 6.78318ZM28.5672 19.553H25.1289L21.2202 12.7829L19.202 16.2786L25.2709 26.7902C25.5043 27.1946 25.8812 27.4838 26.3323 27.6047C26.4828 27.6451 26.6356 27.6651 26.7875 27.6651C27.0903 27.6651 27.3893 27.5856 27.6587 27.4301C28.4933 26.9481 28.7803 25.877 28.2983 25.0425L27.1472 23.0488H28.5672C29.531 23.0488 30.3151 22.2647 30.3151 21.3009C30.3151 20.3371 29.531 19.553 28.5672 19.553ZM8.49126 25.0425L8.83503 24.4471H12.8716L11.5187 26.7903C11.1953 27.3504 10.6065 27.6639 10.0021 27.6639C9.70569 27.664 9.40561 27.5886 9.13105 27.4301C8.29641 26.9482 8.00941 25.8771 8.49126 25.0425Z" fill="#091D26"/>
</svg>
