<svg width="19" height="17" viewBox="0 0 19 17" fill="none" xmlns="http://www.w3.org/2000/svg">
<path d="M0.726562 2.15493C0.726562 1.58917 0.925246 1.12244 1.3226 0.754721C1.71995 0.386985 2.23652 0.203125 2.87228 0.203125C3.4967 0.203125 4.0019 0.38415 4.38791 0.746235C4.78526 1.11962 4.98394 1.60615 4.98394 2.20584C4.98394 2.74895 4.79095 3.20153 4.40494 3.56362C4.00759 3.937 3.48534 4.1237 2.83822 4.1237H2.82119C2.19677 4.1237 1.69157 3.937 1.30557 3.56362C0.919558 3.19023 0.726562 2.72066 0.726562 2.15493ZM0.947946 17.0056V5.66817H4.7285V17.0056H0.947946ZM6.82313 17.0056H10.6037V10.675C10.6037 10.2789 10.6491 9.97343 10.7399 9.75846C10.8989 9.37375 11.1401 9.04845 11.4637 8.78256C11.7872 8.51666 12.1931 8.38371 12.6813 8.38371C13.9528 8.38371 14.5886 9.23797 14.5886 10.9465V17.0056H18.3691V10.5052C18.3691 8.83064 17.9718 7.56056 17.1771 6.69498C16.3824 5.8294 15.3322 5.39661 14.0266 5.39661C12.5621 5.39661 11.4211 6.02458 10.6037 7.28052V7.31447H10.5867L10.6037 7.28052V5.66817H6.82313C6.84583 6.03023 6.85719 7.15605 6.85719 9.04563C6.85719 10.9352 6.84583 13.5885 6.82313 17.0056Z" fill="white"/>
</svg>
