<svg width="213" height="53" viewBox="0 0 213 53" fill="none" xmlns="http://www.w3.org/2000/svg">
<path d="M47.3942 30.1294C48.5408 25.8412 51.4999 23.0687 55.8831 22.773C56.1605 22.7545 56.4194 22.736 56.6968 22.736C61.6718 22.736 65.0008 25.5825 65.9995 30.1109H47.3942V30.1294ZM73.5451 36.5985C73.7301 35.1199 73.7856 33.6412 73.6931 32.1625C73.5821 30.3327 73.2122 28.5398 72.6019 26.8209C70.3086 20.4256 64.6309 16.156 56.9187 16.082H56.7708C46.7469 16.082 39.5156 24.1777 39.5156 34.1957C39.5156 44.2137 46.8948 52.3648 57.2701 52.3648C64.224 52.3648 70.3456 49.3151 73.3972 42.4947C70.9004 42.2729 68.4592 41.5706 66.2399 40.4061C64.7048 43.3819 61.5423 45.4705 57.4181 45.4705C52.0917 45.4705 48.0415 42.0696 47.1168 36.5985H73.5451Z" fill="#091D26"/>
<path d="M148.906 24.7357V17.0651H156.581V22.5361C158.708 18.3219 162.98 16.2148 167.585 16.2148C174.909 16.2148 180.439 21.3902 180.439 28.6357V51.2778H172.56V31.5375C172.56 26.7134 169.712 23.5897 164.885 23.5897C160.058 23.5897 156.803 26.8612 156.803 31.8148V51.2778H148.906V24.7172V24.7357Z" fill="#091D26"/>
<path d="M129.172 44.8253C123.273 44.8253 119.019 40.075 119.019 34.1789C119.019 28.2827 123.217 23.6064 129.172 23.6064C135.127 23.6064 139.326 28.3012 139.326 34.1789C139.326 40.0566 135.072 44.8253 129.172 44.8253ZM130.948 16.287C126.25 16.287 121.645 18.4865 119.222 22.3865V1.57422H111.344V51.276H118.797V45.1764C121.053 49.6494 126.047 52.1262 130.948 52.1262C140.602 52.1262 147.204 44.1783 147.204 34.1604C147.204 24.1424 140.602 16.2685 130.948 16.2685" fill="#091D26"/>
<path d="M83.3083 30.1294C84.4549 25.8412 87.414 23.0687 91.7971 22.773C92.0745 22.7545 92.3335 22.736 92.6109 22.736C97.5859 22.736 100.915 25.5825 101.914 30.1109H83.3083V30.1294ZM109.459 36.5985C109.644 35.1199 109.7 33.6412 109.607 32.1625C109.496 30.3327 109.126 28.5398 108.516 26.8209C106.223 20.4256 100.545 16.156 92.8328 16.082H92.6849C82.661 16.082 75.4297 24.1777 75.4297 34.1957C75.4297 44.2137 82.8089 52.3648 93.1842 52.3648C100.138 52.3648 106.26 49.3151 109.311 42.4947C106.815 42.2729 104.373 41.5706 102.154 40.4061C100.619 43.3819 97.4564 45.4705 93.3322 45.4705C88.0058 45.4705 83.9556 42.0696 83.0308 36.5985H109.459Z" fill="#091D26"/>
<path d="M44.4348 18.9864C44.1574 19.2267 43.8985 19.4669 43.6581 19.7257L43.5841 19.7997C43.5841 19.7997 43.4916 19.8921 43.4546 19.929C43.3622 20.0215 43.2697 20.1324 43.1772 20.2248C41.8086 21.7034 40.662 23.3854 39.8113 25.1968C38.7941 24.7717 37.7029 24.5684 36.5932 24.5868C30.8415 24.5868 29.0661 30.1319 29.0661 36.0835V51.2768H21.1875V17.0456H28.8626V22.8679C30.4162 19.1712 33.4862 16.4727 37.8139 16.4727C40.8654 16.4727 43.1402 17.3968 44.4163 18.894L44.4533 18.9679L44.4348 18.9864Z" fill="#091D26"/>
<path d="M25.9942 3.51517C25.5319 3.90332 25.1065 4.30996 24.6996 4.73507L24.4777 4.95687L24.3112 5.1417C23.2756 6.28766 22.3693 7.54453 21.6296 8.9123C20.6864 8.33932 19.5952 8.04359 18.4855 8.06207C15.0086 8.06207 13.1592 10.1877 13.1592 14.4573V17.082H19.5027V24.198H13.1592V51.3131H5.29911V24.1611H0.601562V17.045H5.29911V14.2355C5.29911 5.71469 10.3481 0.613281 17.8752 0.613281C22.0919 0.613281 24.7921 2.09195 26.0127 3.51517" fill="#091D26"/>
<path d="M211.805 49.022C212.009 49.7614 212.175 50.5192 212.305 51.2955H203.631C202.799 48.2272 200.986 45.5102 198.49 43.551C196.067 41.6472 193.089 40.5567 190.019 40.4273V51.2955H182.141V1.59375H190.019V34.4202C193.459 34.2723 196.751 32.923 199.303 30.6126C201.93 28.2283 203.612 24.9752 204.038 21.4449C204.13 20.687 204.13 19.9292 204.038 19.1899C204.019 19.0051 203.982 18.8202 203.964 18.6354C203.89 18.1179 203.779 17.6003 203.649 17.0828H212.286C212.379 17.5819 212.434 18.0809 212.49 18.6354C212.545 19.1899 212.601 19.7629 212.601 20.3174C212.564 22.1657 212.286 23.9956 211.805 25.77C211.787 25.8439 211.768 25.9178 211.731 26.0103C210.085 31.2226 206.257 34.5496 201.319 36.7676C200.801 37.0078 200.265 37.2112 199.729 37.396C200.265 37.5993 200.801 37.8026 201.319 38.0429C206.257 40.2609 210.085 43.5879 211.731 48.8002C211.75 48.8742 211.787 48.9481 211.805 49.0405" fill="#091D26"/>
</svg>
