<svg width="200" height="201" viewBox="0 0 200 201" fill="none" xmlns="http://www.w3.org/2000/svg">
<path fill-rule="evenodd" clip-rule="evenodd" d="M104.45 2.75718L112.828 3.36103L112.979 1.26263L102.381 0.507812L101.174 17.3705L103.393 17.5215L103.906 10.2752L111.183 10.8036L111.334 8.75045L104.057 8.22208L104.45 2.75718ZM120.466 7.31639C117.326 6.62195 114.156 8.72035 113.386 12.2378H113.371C112.601 15.7704 114.624 19.0161 117.749 19.6954C120.874 20.3748 124.074 18.2462 124.844 14.7438C125.614 11.2415 123.606 8.01082 120.466 7.31639ZM120.044 9.23363C122.051 9.67143 123.35 11.7547 122.791 14.306C122.233 16.8724 120.179 18.2311 118.172 17.7933C116.164 17.3555 114.85 15.242 115.409 12.6907C115.968 10.1394 118.036 8.79584 120.044 9.23363ZM125.402 21.4313L129.433 9.97314L130.897 10.4864L130.822 12.0715L130.943 12.1168C131.577 11.6488 133.056 10.9695 134.49 11.4677C134.838 11.5885 135.124 11.7092 135.351 11.8753L134.656 13.8529C134.385 13.6567 134.128 13.5359 133.811 13.4302C132.06 12.8113 130.369 13.5963 129.644 15.6796L127.38 22.1258L125.417 21.4313H125.402ZM142.312 17.3556L139.308 23.062H139.323C138.115 25.3416 138.794 27.3645 140.591 28.3156C141.104 28.5873 141.497 28.6628 141.798 28.7081L142.689 27.0173C142.387 27.0022 142.131 26.9267 141.859 26.7757C140.847 26.2474 140.485 25.2963 141.179 23.9678L144.153 18.3368L146.584 19.62L147.475 17.9292L145.044 16.646L146.524 13.823L144.969 13.0078L144.123 14.608C143.685 15.4383 142.976 15.6346 142.146 15.1968L141.33 14.7741L140.47 16.3894L142.312 17.3556ZM143.625 29.6441L143.632 29.6339L145.331 30.8216L149.346 25.0699C150.554 23.3187 152.411 23.0017 153.951 24.0735C155.415 25.1001 155.732 26.9418 154.509 28.6779L150.509 34.4296L152.23 35.6374L156.276 29.8403C158.133 27.1834 157.634 24.2848 155.415 22.7299C153.951 21.7034 152.29 21.8694 151.52 22.1864L151.415 22.111L155.008 16.9631L153.302 15.7705L143.632 29.6339L143.625 29.629V29.6441ZM166.481 31.8475C164.156 29.6283 160.352 29.7642 157.861 32.3608C155.355 34.9725 155.385 38.7919 157.71 41.011C160.02 43.2151 163.839 43.0943 166.345 40.4827C168.836 37.8861 168.791 34.0516 166.481 31.8475ZM165.122 33.2515C166.602 34.6705 166.617 37.1313 164.82 39.0183C162.994 40.9205 160.533 41.011 159.054 39.592C157.574 38.1729 157.529 35.6971 159.356 33.795C161.167 31.9079 163.643 31.8324 165.122 33.2515ZM165.665 43.5175L166.963 45.1479C166.088 45.9933 165.997 47.2312 166.963 48.454C167.899 49.6315 168.956 49.7674 169.696 49.1786C170.635 48.4342 170.152 47.1505 169.616 45.7233C168.946 43.9379 168.19 41.9278 170.028 40.468C171.522 39.2754 173.742 39.5471 175.342 41.57C176.912 43.5628 176.64 45.9329 175.1 47.3218L173.817 45.7215C174.678 44.8611 174.768 43.8194 173.908 42.7174C173.047 41.6455 172.051 41.5097 171.371 42.0531C170.487 42.7527 170.953 43.9975 171.478 45.3992C172.153 47.2038 172.926 49.2683 171.039 50.7638C169.454 52.0319 167.25 51.7752 165.514 49.6013C163.823 47.4576 164.125 44.9365 165.665 43.5326V43.5175ZM179.461 60.9502L179.463 60.9537H179.448L179.461 60.9502ZM180.535 60.4253C180.104 60.6781 179.746 60.8723 179.461 60.9502L174.753 53.013C173.017 54.4019 172.624 56.3342 173.636 58.0552C174.376 59.3082 175.417 59.7762 176.549 59.8064L177.651 61.6632C175.704 61.9803 173.258 61.1802 171.975 59.0214C170.3 56.1983 171.266 52.6205 174.451 50.7334C177.546 48.8917 181.244 49.7975 182.875 52.5299C184.505 55.2624 183.464 58.6893 180.535 60.4253ZM179.946 58.4175L176.217 52.1223C178.27 51.2769 180.308 51.911 181.244 53.4961C182.211 55.1416 181.652 57.1192 179.946 58.4175ZM193.367 78.2847L194.001 80.2925L181.2 80.1415L180.701 78.5715L188.038 73.4236L179.086 73.484L178.588 71.914L188.944 64.3809L189.608 66.4793L182.09 71.763L191.269 71.7026L191.692 73.016L184.128 78.3148L193.367 78.2847ZM199.179 82.9492L182.422 85.2137L182.407 85.2288L182.679 87.2819L189.623 86.3459C191.722 86.0591 193.216 87.1913 193.473 89.0633C193.714 90.8295 192.582 92.2939 190.469 92.5807L183.524 93.5167L183.811 95.6L190.831 94.6489C194.031 94.2262 195.843 91.8863 195.481 89.1991C195.254 87.4329 194.001 86.3308 193.231 85.9685V85.8477L199.451 85.0023L199.179 82.9492ZM190.046 97.4719C193.639 97.5474 196.326 100.25 196.266 103.465C196.205 106.651 193.428 109.277 189.835 109.217C186.212 109.141 183.539 106.409 183.6 103.224C183.66 100.008 186.438 97.4116 190.061 97.4719H190.046ZM189.85 107.103C192.461 107.149 194.258 105.473 194.288 103.42C194.333 101.367 192.597 99.6005 189.986 99.5402C187.359 99.4949 185.562 101.201 185.517 103.254C185.472 105.307 187.208 107.058 189.835 107.103H189.85ZM191.072 133.22L191.586 131.182L191.601 131.137L183.735 126.291L192.959 125.778L193.291 124.449L185.456 119.664L194.635 119.135L195.178 117.007L182.407 117.958L181.999 119.558L189.638 124.223L180.686 124.736L180.278 126.336L191.072 133.22ZM184.657 132.647C187.948 134.096 189.367 137.629 188.069 140.572C186.786 143.486 183.193 144.83 179.902 143.38C176.596 141.916 175.177 138.353 176.46 135.44C177.758 132.496 181.336 131.182 184.642 132.647H184.657ZM180.762 141.463C183.147 142.52 185.457 141.659 186.288 139.787C187.118 137.915 186.212 135.606 183.827 134.549C181.426 133.477 179.102 134.368 178.271 136.24C177.441 138.112 178.362 140.391 180.762 141.463ZM183.661 148.86L173.229 142.625V142.641L172.157 144.422L178.03 147.924C179.917 149.041 180.355 150.853 179.404 152.453C179.222 152.74 179.056 152.967 178.815 153.193L180.611 154.265C180.823 154.084 181.004 153.827 181.185 153.51C181.97 152.212 181.592 150.611 181.26 149.902L181.321 149.796L182.861 150.189L183.661 148.86ZM163.22 157.073L163.233 157.056L171.583 156.484L173.199 163.987L174.708 162.009L173.063 154.718L181.411 161.058L182.664 159.397L169.198 149.177L167.945 150.838L172.761 154.491L164.82 154.959L163.233 157.056L163.205 157.058L163.22 157.073ZM170.134 174.238L158.993 161.511L157.423 162.885L162.043 168.154C163.447 169.754 163.326 171.626 161.907 172.864C160.563 174.041 158.706 173.905 157.302 172.305L152.683 167.037L151.098 168.425L155.762 173.754C157.891 176.185 160.835 176.396 162.873 174.615C164.232 173.437 164.458 171.792 164.337 170.962L164.428 170.886L168.564 175.611L170.134 174.238ZM145.602 181.272L141.436 174.796L142.749 173.951L143.942 174.992L144.047 174.932C144.077 174.087 144.485 172.532 146.146 171.46C148.214 170.131 150.448 170.645 151.535 172.32C152.788 174.268 151.761 176.774 149.044 178.525L147.142 179.748L147.444 180.216C148.35 181.62 149.784 181.922 151.082 181.091C152.38 180.261 152.531 179.068 152.124 178.072L153.89 176.94C154.811 178.766 154.373 181.257 152.124 182.707C149.784 184.216 147.142 183.628 145.632 181.288L145.602 181.272ZM145.723 177.574L146.221 178.344L148.002 177.196C149.935 175.959 150.539 174.615 149.829 173.513C149.225 172.577 148.123 172.335 146.84 173.166C145.119 174.283 144.787 176.125 145.708 177.574H145.723ZM144.365 186.919L139.005 176.019V176.034L137.148 176.955L140.168 183.084C141.134 185.047 140.53 186.813 138.854 187.628C138.537 187.779 138.266 187.885 137.949 187.93L138.869 189.817C139.141 189.757 139.428 189.651 139.76 189.485C141.119 188.821 141.677 187.266 141.783 186.496L141.889 186.436L142.976 187.598L144.365 186.919ZM135.397 184.684C136.62 188.202 135.065 191.508 132.197 192.504C130.37 193.138 128.634 192.414 128.151 192.066L128.03 192.112L130.083 197.999L128.121 198.679L122.535 182.722L124 182.208L124.935 183.492L125.056 183.446C125.237 182.873 126.128 181.182 128 180.518C130.868 179.506 134.159 181.152 135.382 184.669L135.397 184.684ZM126.521 187.779C127.381 190.24 129.555 191.342 131.427 190.693C133.269 190.043 134.295 187.824 133.435 185.364C132.559 182.873 130.385 181.771 128.544 182.42C126.672 183.069 125.66 185.303 126.521 187.779ZM105.4 185.605L106.321 193.259L106.336 193.274C106.668 196.021 108.797 197.712 111.56 197.38C114.217 197.063 115.696 195.01 115.666 192.972L113.582 193.229C113.522 194.3 112.873 195.297 111.333 195.493C109.793 195.689 108.631 194.783 108.435 193.123L108.374 192.564L110.624 192.293C113.839 191.9 115.847 190.088 115.575 187.794C115.334 185.801 113.552 184.352 111.107 184.654C109.129 184.895 108.087 186.118 107.695 186.888H107.574L106.955 185.424L105.4 185.605ZM108.148 190.904L108.042 189.998H108.027C107.831 188.292 108.933 186.767 110.971 186.526C112.48 186.345 113.371 187.039 113.507 188.141C113.673 189.439 112.541 190.375 110.261 190.647L108.148 190.904ZM102.849 185.771L102.547 197.909L101.007 197.863L100.585 196.324H100.464C99.9958 197.003 98.7277 198.06 96.9463 198.014C94.1535 197.939 92.1154 195.795 92.206 192.565L92.3872 185.484L94.4856 185.53L94.3044 192.534C94.2591 194.663 95.5272 196.022 97.3086 196.067C99.1957 196.112 100.554 194.814 100.6 192.7L100.781 185.696L102.864 185.741L102.849 185.771ZM82.846 196.595C85.8502 197.154 88.8393 195.04 89.5035 191.387H89.5186C90.198 187.718 88.1449 184.669 85.1558 184.125C83.2083 183.763 81.593 184.79 81.1552 185.182H81.0345L80.8533 183.597L79.3286 183.325L76.2791 199.946L78.3171 200.324L79.4342 194.225H79.555C79.7965 194.753 80.9439 196.248 82.846 196.595ZM83.0876 194.663C81.1401 194.3 79.7965 192.262 80.2645 189.696C80.7476 187.115 82.7253 185.68 84.6727 186.043C86.5899 186.39 87.9335 188.443 87.4655 191.024C86.9975 193.591 85.0048 195.01 83.0876 194.663ZM70.105 186.978C68.6407 190.405 65.2742 191.794 62.4662 190.602C60.6849 189.847 59.8999 188.141 59.7791 187.567L59.6734 187.522L57.2278 193.243L55.3105 192.428L61.9379 176.879L63.3569 177.483L63.1758 179.068L63.2815 179.113C63.8098 178.811 65.6063 178.162 67.4179 178.932C70.2107 180.125 71.5392 183.552 70.0748 186.963L70.105 186.978ZM61.4548 183.295C60.4282 185.695 61.2887 187.975 63.1154 188.76C64.9119 189.53 67.1612 188.564 68.1878 186.163C69.2143 183.748 68.3539 181.453 66.5574 180.698C64.7307 179.928 62.4964 180.879 61.4548 183.295ZM59.4287 175.42L59.4315 175.415L59.4466 175.43L59.4287 175.42ZM57.6501 174.373L59.4287 175.42L53.2872 185.907L51.9587 185.122L52.3361 183.582L52.2305 183.522C51.5209 183.869 49.9358 184.246 48.6224 183.477C48.3054 183.295 48.0488 183.114 47.8525 182.918L48.9093 181.106C49.1357 181.348 49.3621 181.514 49.6641 181.68C51.2643 182.616 53.0759 182.163 54.193 180.276L57.6501 174.373ZM41.7091 169.603L49.0762 175.144C50.148 173.196 49.7857 171.264 48.1855 170.056C47.0231 169.18 45.8758 169.135 44.819 169.543L43.098 168.244C44.7737 167.218 47.3401 167.022 49.3479 168.531C51.9747 170.509 52.4427 174.177 50.2235 177.136C48.0647 180.02 44.2906 180.593 41.7544 178.676C39.2031 176.759 38.8559 173.211 40.909 170.479C41.211 170.071 41.4827 169.754 41.7091 169.573V169.603ZM48.0647 176.532L42.2224 172.139C41.1355 173.981 41.377 176.034 42.9018 177.182C44.3661 178.284 46.4947 178.102 48.0647 176.532ZM37.0895 157.828L31.6397 163.277L31.6246 163.292C29.6772 165.255 29.6621 167.972 31.6246 169.935C33.5116 171.837 36.0478 171.731 37.633 170.448L36.1535 168.969C35.2779 169.588 34.0702 169.693 32.9833 168.591C31.8963 167.489 31.8963 166.025 33.0738 164.847L33.4664 164.455L35.0666 166.055C37.3612 168.335 40.0182 168.818 41.6637 167.172C43.0828 165.753 43.1281 163.458 41.3769 161.722C39.9729 160.318 38.3576 160.258 37.5273 160.409L37.4367 160.318L38.2066 158.93L37.0895 157.828ZM34.6288 163.262L35.2779 162.613H35.293C36.5007 161.39 38.3878 161.33 39.837 162.779C40.9089 163.851 40.9089 164.983 40.1239 165.768C39.203 166.689 37.7688 166.372 36.1384 164.757L34.6288 163.262ZM19.9098 146.973L25.9785 142.761L27.156 144.467L21.1326 148.649C19.4871 149.796 19.17 151.276 19.9852 152.453C20.7854 153.6 22.4158 153.887 24.0009 152.785L30.0244 148.604L31.2019 150.309L25.1784 154.491C23.5329 155.638 23.2159 157.118 24.0311 158.295C24.8463 159.473 26.4616 159.73 28.0467 158.628L34.0702 154.446L35.2477 156.152L25.269 163.081L24.3934 161.813L25.3747 160.575L25.2992 160.469C24.5746 160.53 23.0649 160.379 22.144 159.05C21.0118 157.42 21.51 155.759 21.9629 154.974C20.9967 155.065 19.2304 154.838 18.1133 153.238C16.7848 151.336 17.3132 148.785 19.8947 147.003L19.9098 146.973ZM9.38658 135.47C10.5188 138.474 14.0061 140.014 17.3726 138.746C20.7693 137.478 22.3997 134.021 21.2675 131.016C20.1352 128.042 16.648 126.488 13.2513 127.756C9.88477 129.009 8.26945 132.481 9.38658 135.47ZM11.2132 134.775C10.5037 132.858 11.5454 130.639 13.991 129.718C16.4517 128.797 18.7011 129.794 19.4257 131.711C20.1352 133.628 19.0936 135.878 16.6329 136.798C14.2023 137.704 11.9379 136.693 11.2132 134.775ZM5.31115 124.328L6.17164 124.117L5.5074 121.415L7.36426 120.962L8.0285 123.634L17.977 121.173L18.4752 123.196L8.52668 125.657L8.93429 127.302L7.07743 127.755L6.66983 126.11L5.70365 126.351C3.21275 126.97 1.41627 125.838 0.933189 123.845C0.797321 123.287 0.812418 122.879 0.84261 122.577L2.66928 122.124C2.63908 122.411 2.66928 122.668 2.72966 122.985C3.01649 124.132 3.8468 124.706 5.31115 124.343V124.328ZM6.06605 112.584L12.482 111.95H12.5122C15.0786 111.693 16.392 110.018 16.1957 107.995C16.1354 107.421 15.9693 107.044 15.8485 106.772L13.9464 106.953C14.0973 107.21 14.1728 107.466 14.203 107.783C14.3087 108.916 13.7199 109.746 12.2254 109.897L5.88489 110.531L5.61316 107.799L3.71101 107.98L3.98275 110.712L0.8125 111.029L0.978561 112.78L2.77503 112.599C3.71101 112.509 4.26958 112.992 4.36016 113.928L4.45074 114.833L6.2774 114.652L6.06605 112.584ZM15.7282 104.718L15.7129 104.719L15.683 102.65L8.84429 102.756C6.6553 102.801 5.32682 101.488 5.29663 99.631C5.29663 99.2989 5.31172 99.012 5.4023 98.695L3.3039 98.7252C3.22842 98.9818 3.22842 99.2989 3.22842 99.6612C3.25861 101.186 4.40594 102.348 5.07018 102.771V102.892L3.56054 103.375L3.59073 104.915L15.7129 104.719L15.7132 104.734L15.7282 104.718ZM3.55957 95.8568L10.5945 96.6569L10.6096 96.6418C13.8251 97.0192 16.15 95.2076 16.467 92.4299C16.6784 90.6485 15.7424 89.2747 15.1083 88.7464V88.6256L16.6633 88.3689L16.8444 86.814L4.76729 85.4402L4.52574 87.5235L11.4852 88.3237C13.5987 88.5652 14.7611 90.0145 14.5498 91.8864C14.3384 93.6678 12.8741 94.8302 10.7606 94.5887L3.80112 93.7886L3.55957 95.8568ZM15.1397 72.6079L12.7091 81.5148C14.9132 81.7865 16.5738 80.7449 17.1022 78.8125C17.4796 77.4085 17.1022 76.3367 16.3323 75.4913L16.8908 73.4231C18.476 74.6006 19.5931 76.9104 18.9289 79.3409C18.0684 82.5111 14.8226 84.3076 11.2599 83.3263C7.78771 82.3753 5.85537 79.0993 6.68567 76.0197C7.53107 72.94 10.7013 71.3096 13.9923 72.2003C14.4754 72.3362 14.8679 72.472 15.1397 72.6079ZM11.0485 81.0921L12.9809 74.0269C10.8674 73.6948 9.04071 74.6761 8.54253 76.5179C8.05944 78.2841 9.01052 80.2014 11.0485 81.077V81.0921ZM15.8934 54.3872L15.1083 53.9494H15.0933C13.7799 53.2247 13.5534 52.2435 14.1271 51.2018C14.2931 50.9301 14.4592 50.7187 14.6706 50.5376L13.025 49.6167C12.7986 49.828 12.5118 50.0998 12.2249 50.6131C11.2286 52.4095 11.7871 54.4627 14.0214 55.7006L14.8819 56.1836L14.0667 57.6631L15.7424 58.584L16.5576 57.1045L25.5098 62.0712L26.5212 60.2597L17.5691 55.293L18.9126 52.8775L17.2369 51.9566L15.8934 54.3872ZM28.5903 56.7418L18.5059 49.9635L19.3664 48.6803L20.8911 49.1483L20.9515 49.0426C20.6496 48.318 20.3778 46.7027 21.2232 45.4346C21.4195 45.1327 21.6157 44.8911 21.8271 44.71L23.5632 45.8875C23.3065 46.0988 23.1254 46.3253 22.9442 46.597C21.9026 48.1368 22.2498 49.9635 24.0764 51.2014L29.7527 55.0208L28.5903 56.7418ZM29.5101 46.4159L35.5034 39.3961H35.4732C35.292 39.1545 35.0052 38.8677 34.6127 38.5356C32.0312 36.3315 28.4534 36.4523 26.3852 38.8828C24.317 41.3133 24.6793 45.1025 27.4117 47.4425C30.2347 49.8428 33.9334 49.6013 36.062 47.0953C37.6924 45.1931 37.6622 42.6116 36.7413 40.8755L35.3524 42.5059C35.6996 43.5929 35.5789 44.7402 34.6429 45.8423C33.3446 47.367 31.3821 47.6085 29.5101 46.4159ZM28.1891 45.3052L32.937 39.7433C31.1556 38.5507 29.1025 38.6564 27.8646 40.1056C26.6741 41.5072 26.7171 43.6308 28.1891 45.3052ZM45.5127 30.4897L45.5074 30.4943C45.3702 30.2245 45.1159 29.8961 44.7881 29.5235C42.5538 26.942 38.991 26.5344 36.5907 28.6328C34.1904 30.7312 33.979 34.5355 36.3341 37.2529C38.7646 40.0457 42.4632 40.3627 44.939 38.2039C46.8261 36.5584 47.1884 34.0071 46.5241 32.1503L44.8937 33.5543C45.0749 34.6714 44.8032 35.7885 43.7011 36.7396C42.1915 38.053 40.2138 37.9926 38.5381 36.5433L45.5074 30.4943L45.5127 30.5048V30.4897ZM37.3908 35.2601L42.9161 30.4595C41.3461 29.0102 39.2779 28.814 37.8437 30.067C36.4548 31.2747 36.1831 33.3882 37.3908 35.2601ZM48.004 20.1182C45.4376 21.7486 44.6526 25.3114 46.6302 28.4665V28.4363C48.6079 31.5915 52.1706 32.452 54.7521 30.8367C56.4278 29.7799 56.926 27.9382 56.9713 27.3343L57.077 27.2739L58.2696 28.3156L59.583 27.5004L50.5855 13.189L48.8192 14.291L52.1404 19.5747L52.0348 19.6351C51.4913 19.4087 49.6344 19.0917 48.004 20.1182ZM49.1513 21.7184C50.827 20.6617 53.1972 21.2655 54.5861 23.4696H54.6011C56.0051 25.7039 55.5069 28.0891 53.8312 29.1459C52.1706 30.1875 49.8005 29.5988 48.3965 27.3645C47.0077 25.1453 47.4907 22.7601 49.1513 21.7184ZM58.9638 20.9333C57.5447 17.6272 58.9185 14.0644 61.8774 12.8114C64.8061 11.5584 68.3387 13.0077 69.7577 16.3289C71.1768 19.6652 69.7879 23.228 66.8592 24.481C63.9003 25.7491 60.3829 24.2847 58.9638 20.9484V20.9333ZM67.8254 17.1441C66.7988 14.7438 64.5344 13.7927 62.6473 14.6079C60.7603 15.408 59.8545 17.7178 60.881 20.1181C61.9227 22.5335 64.2022 23.4695 66.0893 22.6694C67.9763 21.8693 68.867 19.5746 67.8254 17.1441ZM89.6396 17.7023L88.0545 10.4862C87.3751 7.42163 85.2314 5.95728 82.967 6.45546C81.0648 6.87816 80.1892 8.418 79.9024 9.35397C79.3589 8.62935 78.0003 7.54241 76.0679 7.9651C74.4828 8.31232 73.7733 9.6559 73.5468 10.3503L73.426 10.3805L72.6561 8.99166L71.1465 9.32378L73.7582 21.1896L75.7811 20.7367L74.2111 13.5659C73.7884 11.6788 74.6489 10.2749 76.0377 9.97293C77.4266 9.671 78.6796 10.5315 79.1174 12.494L80.6874 19.6648L82.7103 19.2119L81.1403 12.0411C80.7176 10.1541 81.5932 8.75012 82.967 8.44819C84.3559 8.14626 85.6089 9.00676 86.0466 10.9693L87.6167 18.1401L89.6396 17.7023Z" fill="#D9D9D9"/>
</svg>
