<svg width="99" height="29" viewBox="0 0 99 29" fill="none" xmlns="http://www.w3.org/2000/svg">
<path fill-rule="evenodd" clip-rule="evenodd" d="M83.4321 5.96049V9.23139C84.5136 9.39553 85.5431 9.80503 86.4418 10.4285C87.3406 11.052 88.0847 11.8729 88.6171 12.8284C89.1496 13.7839 89.4563 14.8486 89.5137 15.9409C89.5711 17.0332 89.3777 18.1242 88.9484 19.1302C88.519 20.1362 87.8651 21.0306 87.0367 21.7449C86.2083 22.4592 85.2274 22.9744 84.1691 23.251C83.1108 23.5276 82.0033 23.5583 80.9313 23.3408C79.8593 23.1232 78.8513 22.6632 77.9846 21.996L75.3267 24.6548C75.3963 24.8719 75.4331 25.0982 75.4361 25.3262C75.4358 25.787 75.2988 26.2373 75.0426 26.6203C74.7864 27.0033 74.4224 27.3017 73.9966 27.4778C73.5708 27.654 73.1024 27.7 72.6505 27.61C72.1985 27.52 71.7835 27.2981 71.4576 26.9723C71.1318 26.6465 70.9099 26.2314 70.8199 25.7795C70.7299 25.3276 70.7759 24.8591 70.9521 24.4334C71.1282 24.0076 71.4267 23.6436 71.8096 23.3874C72.1926 23.1311 72.6429 22.9942 73.1037 22.9938C73.3317 22.9969 73.558 23.0338 73.7752 23.1033L76.4618 20.4157C75.636 19.2389 75.1839 17.8406 75.1644 16.4031C75.1449 14.9655 75.5588 13.5555 76.3524 12.3567L67.5189 5.48289C67.0944 5.7297 66.6125 5.8608 66.1214 5.86311C65.56 5.86238 65.0115 5.69518 64.5452 5.38267C64.0789 5.07015 63.7157 4.62636 63.5017 4.10743C63.2876 3.5885 63.2323 3.01775 63.3426 2.46736C63.453 1.91697 63.7241 1.41168 64.1217 1.0154C64.5193 0.619118 65.0255 0.349651 65.5762 0.241083C66.127 0.132515 66.6975 0.189724 67.2158 0.405473C67.734 0.621221 68.1766 0.985817 68.4876 1.45314C68.7986 1.92047 68.964 2.46953 68.9629 3.03087C68.9592 3.26921 68.9258 3.50662 68.8618 3.73754L77.8325 10.7245C78.8117 9.93669 79.9817 9.42161 81.224 9.23139V5.96049C80.7918 5.75848 80.4258 5.43785 80.1687 5.03594C79.9116 4.63403 79.7739 4.16735 79.7717 3.69024V3.61513C79.7717 2.9471 80.0371 2.30644 80.5095 1.83407C80.9818 1.36171 81.6225 1.09634 82.2905 1.09634H82.3656C83.7567 1.09634 84.8845 2.22404 84.8845 3.61513V3.69024C84.8822 4.16735 84.7446 4.63403 84.4875 5.03594C84.2304 5.43785 83.8644 5.75848 83.4321 5.96049ZM80.8925 19.7389C81.3502 19.9175 81.8392 20.0026 82.3304 19.9891L82.3341 19.9872C83.2861 19.9529 84.1877 19.5505 84.8489 18.8647C85.5101 18.1789 85.8793 17.2633 85.8788 16.3107C85.8784 15.358 85.5082 14.4428 84.8463 13.7577C84.1844 13.0725 83.2824 12.671 82.3304 12.6377C81.8392 12.6242 81.3502 12.7092 80.8925 12.8879C80.4347 13.0665 80.0174 13.3351 79.6651 13.6778C79.3129 14.0204 79.033 14.4302 78.8418 14.8829C78.6506 15.3356 78.5521 15.822 78.5521 16.3134C78.5521 16.8048 78.6506 17.2912 78.8418 17.7439C79.033 18.1966 79.3129 18.6063 79.6651 18.949C80.0174 19.2917 80.4347 19.5602 80.8925 19.7389Z" fill="#7A8C94"/>
<path d="M10.8262 12.7864V4.92674H14.2529V23.6887H10.8253V16.0842H3.60642V23.6887H0.179688V4.92674H3.60549V12.7864H10.8262Z" fill="#7A8C94"/>
<path d="M24.3908 19.6295C24.9225 19.0978 25.2213 18.3766 25.2213 17.6245V9.5878H28.4597V17.6245C28.4597 19.237 27.8192 20.7835 26.6789 21.9237C25.5387 23.0639 23.9922 23.7045 22.3797 23.7045C20.7672 23.7045 19.2207 23.0639 18.0805 21.9237C16.9403 20.7835 16.2997 19.237 16.2997 17.6245V9.5878H19.5502V17.6245C19.5502 18.3766 19.849 19.0978 20.3807 19.6295C20.9125 20.1613 21.6337 20.46 22.3857 20.46C23.1378 20.46 23.859 20.1613 24.3908 19.6295Z" fill="#7A8C94"/>
<path d="M51.5899 8.24587C50.3964 8.24587 49.3067 8.76799 49.3067 10.416H49.3011C49.3011 11.6299 50.5252 12.0165 52.0013 12.4826C54.2431 13.1905 57.0662 14.082 57.0662 18.334C57.0662 21.6021 54.3712 23.6924 51.0205 23.6924C48.7883 23.6924 46.9242 22.7502 45.4125 20.8954L47.7756 18.4388C47.856 18.5294 47.9343 18.6196 48.0117 18.7086C48.7828 19.5964 49.4569 20.3724 51.2041 20.3724C52.4227 20.3724 53.4874 19.4042 53.4874 18.308C53.4874 16.7864 52.0654 16.2852 50.4385 15.7118C48.2639 14.9453 45.7232 14.0499 45.7232 10.416C45.7232 6.99204 48.2736 4.92674 51.8005 4.92674C53.5653 4.92674 55.7206 5.91998 56.7834 7.35743L54.655 9.86694C53.8231 8.9785 52.5526 8.24587 51.5899 8.24587Z" fill="#7A8C94"/>
<path d="M94.8734 18.5881C94.8734 19.8605 95.4196 20.6914 97.3403 20.6914V20.6886C97.7048 20.6886 98.1212 20.6636 98.4838 20.6386L97.6797 23.5988C97.2513 23.6748 96.8154 23.7101 96.3795 23.7026C93.6029 23.7026 91.5774 22.2235 91.5774 19.2883V7.81278L94.8734 6.33359V10.0997H97.8596V12.9542H94.8734V18.5881Z" fill="#7A8C94"/>
<path fill-rule="evenodd" clip-rule="evenodd" d="M33.7737 11.2144C34.8606 10.1489 35.9846 9.68146 37.5946 9.68146V9.68425C41.23 9.68425 44.3562 12.7224 44.3562 16.6953C44.3562 20.7183 40.9592 23.7064 37.0975 23.7064C33.6161 23.7064 30.5186 20.7702 30.5186 16.4857V5.03896H33.7737V11.2144ZM36.1604 20.1487C36.6087 20.3343 37.089 20.4299 37.5742 20.4299C38.554 20.4299 39.4936 20.0407 40.1864 19.3479C40.8793 18.6551 41.2685 17.7154 41.2685 16.7356C41.2685 15.7559 40.8793 14.8162 40.1864 14.1234C39.4936 13.4306 38.554 13.0414 37.5742 13.0414C37.089 13.0414 36.6087 13.1369 36.1604 13.3226C35.7122 13.5083 35.305 13.7804 34.9619 14.1234C34.6189 14.4665 34.3468 14.8737 34.1611 15.3219C33.9755 15.7701 33.8799 16.2505 33.8799 16.7356C33.8799 17.2208 33.9755 17.7012 34.1611 18.1494C34.3468 18.5976 34.6189 19.0048 34.9619 19.3479C35.305 19.6909 35.7122 19.963 36.1604 20.1487Z" fill="#7A8C94"/>
<path fill-rule="evenodd" clip-rule="evenodd" d="M65.6882 9.51361C69.5573 9.51361 72.947 12.4942 72.947 16.5247C72.947 20.4985 69.8189 23.5366 66.1835 23.5366C64.5753 23.5366 63.4495 23.0674 62.3644 22.0037V28.1875H59.1093V16.7343C59.1093 12.4488 62.2077 9.51361 65.6882 9.51361ZM68.7823 19.0961C69.4751 18.4033 69.8643 17.4636 69.8643 16.4839C69.8643 15.5041 69.4751 14.5644 68.7823 13.8716C68.0895 13.1788 67.1498 12.7896 66.17 12.7896C65.1902 12.7896 64.2506 13.1788 63.5578 13.8716C62.8649 14.5644 62.4757 15.5041 62.4757 16.4839C62.4757 17.4636 62.8649 18.4033 63.5578 19.0961C64.2506 19.7889 65.1902 20.1781 66.17 20.1781C67.1498 20.1781 68.0895 19.7889 68.7823 19.0961Z" fill="#7A8C94"/>
</svg>
