<svg width="110" height="28" viewBox="0 0 110 28" fill="none" xmlns="http://www.w3.org/2000/svg">
<path fill-rule="evenodd" clip-rule="evenodd" d="M0.25 6.85095L12.1218 0.6875L24.121 6.85095L12.1218 13.0299L0.25 6.85095ZM71.5195 9.84384V9.69497C71.5195 7.66681 72.7126 7.01637 74.7221 7.16043V3.45201C69.9081 3.15854 67.6265 5.57035 67.6265 9.69497V9.84384H65.4494V13.5528H67.6265V24.7795H71.5195V13.5528H75.999V24.7795H79.892V13.5528H83.0946V9.84384H79.892V9.69497C79.892 7.66681 81.0643 7.01637 83.0946 7.16043V3.45201C78.2806 3.15854 75.999 5.57035 75.999 9.69497V9.84384H71.5195ZM44.3082 13.905C45.5429 12.9232 46.2964 11.5198 46.2964 9.71631C46.2964 6.22079 43.4497 3.83086 39.8704 3.83086H31.5603V24.7368H40.54C44.2031 24.7368 47.1336 22.2663 47.1336 18.6859C47.0919 16.5249 46.0034 14.8702 44.3082 13.905ZM39.8912 7.70469C41.231 7.70469 42.152 8.69129 42.152 10.0098C42.152 11.3325 41.1889 12.3143 39.8912 12.3143H35.726V7.70469H39.8912ZM40.5192 20.9056H35.726V15.9801H40.5192C41.9428 15.9801 42.9684 17.0259 42.9684 18.4292C42.9684 19.8545 41.9428 20.9056 40.5192 20.9056ZM59.2742 9.8225V17.8855C59.2742 20.4841 57.8512 21.5939 55.9463 21.5939C54.1876 21.5939 52.9528 20.5481 52.9528 18.5146V9.8225H49.0593V18.9954C49.0593 22.9759 51.5506 25.1796 54.774 25.1796C56.8043 25.1796 58.3741 24.422 59.2534 23.0827V24.7581H63.1465V9.8225H59.2742ZM99.2329 18.8721H87.8467C88.4118 20.8416 90.044 21.6793 92.0748 21.6793C93.6025 21.6793 94.817 21.0492 95.4658 20.1906L98.6054 21.9728C97.2031 24.0052 94.9423 25.1796 92.0327 25.1796C86.9674 25.1796 83.7648 21.7433 83.7648 17.2826C83.7648 12.8165 86.9882 9.37962 91.7398 9.37962C96.1984 9.37962 99.3802 12.8805 99.3802 17.2826C99.3802 17.8642 99.3172 18.3711 99.2329 18.8721ZM91.7398 12.8805C89.647 12.8805 88.2229 13.9903 87.7832 15.8947H95.4866C95.0048 13.7396 93.3725 12.8805 91.7398 12.8805ZM105.011 12.3997V9.8225H101.118V24.7581H105.011V17.6134C105.011 14.47 107.565 13.5741 109.595 13.8244V9.52956C107.69 9.52956 105.785 10.3673 105.011 12.3997ZM12.1218 23.6002L4.02245 19.1981L0.25 21.2418L12.1218 27.6875L24.121 21.2418L20.3059 19.1981L12.1218 23.6002ZM4.02245 12.2562L12.1218 16.2469L20.3059 12.2562L24.121 14.1184L12.1218 19.9718L0.25 14.1184L4.02245 12.2562Z" fill="#7A8C94"/>
</svg>
