<svg width="133" height="27" viewBox="0 0 133 27" fill="none" xmlns="http://www.w3.org/2000/svg">
<path d="M8.1459 9.96806L15.8074 5.07778L23.469 9.92731L15.8074 14.8176L23.4282 19.7486L31.0897 14.8583L23.4282 9.96806L31.0897 5.07778L23.4282 0.1875L15.8074 5.07778L8.1459 0.1875L0.484375 5.07778L8.1459 9.92731L0.484375 14.8176L8.1459 19.7486L15.8074 14.8583L8.1459 9.96806Z" fill="#7A8C94"/>
<path d="M15.7667 16.4069L8.10515 21.2972L15.7667 26.1875L23.4282 21.2972L15.7667 16.4069Z" fill="#7A8C94"/>
<path fill-rule="evenodd" clip-rule="evenodd" d="M43.2738 5.07825H37.0793V21.2977H43.396C47.4306 21.2977 50.487 18.934 50.487 13.677V12.5767C50.487 7.36038 47.2268 5.07825 43.2738 5.07825ZM40.5433 18.3228V8.01241H43.07C45.3522 8.01241 46.9415 9.4795 46.9415 12.7397V13.5955C46.9415 16.8557 45.4337 18.3228 43.1923 18.3228H40.5433Z" fill="#7A8C94"/>
<path d="M55.0921 8.17542H52.3616V21.3384H55.7849V15.3071C55.7849 12.5359 56.4777 11.5579 59.2896 11.5579H60.716V8.05317H59.8602C57.415 8.05317 56.0702 9.15348 55.5404 11.2319L55.0921 8.17542Z" fill="#7A8C94"/>
<path fill-rule="evenodd" clip-rule="evenodd" d="M61.4088 14.655V15.0218C61.4088 19.3416 63.8132 21.6237 68.0515 21.6645C72.0453 21.6645 74.6942 19.3416 74.6942 15.0218V14.655C74.6942 10.2538 71.9638 7.8494 68.0515 7.8494C64.2207 7.8494 61.4088 10.2538 61.4088 14.655ZM71.1894 14.655V14.9811C71.1894 17.3447 69.9669 18.6488 68.0107 18.6895C66.0546 18.6895 64.832 17.3447 64.832 14.9811V14.655C64.832 12.0877 66.0953 10.7428 68.0107 10.7428C69.9669 10.7428 71.1894 12.2099 71.1894 14.655Z" fill="#7A8C94"/>
<path fill-rule="evenodd" clip-rule="evenodd" d="M79.34 8.17542H76.4873L76.4466 25.8619H79.7883V19.2193C80.4811 20.7271 81.9074 21.6645 83.9858 21.6645C87.083 21.6645 89.5282 19.3823 89.5282 15.0626V14.6958C89.5282 10.2538 87.3276 7.8494 83.9858 7.8494C81.8259 7.8494 80.3588 8.99047 79.666 10.6613L79.34 8.17542ZM86.0642 14.6958V14.9811C86.0642 17.4262 84.8416 18.6895 82.8855 18.7303C80.9701 18.7303 79.7475 17.2632 79.7475 14.9403V14.6958C79.7475 12.2507 81.0109 10.7836 82.9263 10.7836C84.7194 10.7836 86.0642 12.0877 86.0642 14.6958Z" fill="#7A8C94"/>
<path fill-rule="evenodd" clip-rule="evenodd" d="M94.2963 21.2977L94.5816 18.8933C95.2744 20.6049 96.7007 21.6237 98.9014 21.6645C102.243 21.6645 104.444 19.1786 104.444 14.8181V14.4105C104.444 10.05 102.121 7.89016 98.9829 7.8494C96.9045 7.8494 95.4374 8.78671 94.7038 10.4983V3.77417H91.3621V21.2977H94.2963ZM97.801 10.7428C99.6349 10.7428 100.939 12.0877 100.939 14.492V14.8181C100.939 17.4262 99.7572 18.6895 97.7603 18.6895C95.8857 18.6895 94.6223 17.2632 94.6223 14.8181V14.5328C94.6223 12.2507 95.9264 10.7428 97.801 10.7428Z" fill="#7A8C94"/>
<path fill-rule="evenodd" clip-rule="evenodd" d="M105.911 14.655V15.0218C105.911 19.3416 108.315 21.6237 112.554 21.6645C116.507 21.6645 119.196 19.3416 119.196 15.0218V14.655C119.196 10.2538 116.466 7.8494 112.554 7.8494C108.723 7.8494 105.911 10.2538 105.911 14.655ZM115.732 14.655V14.9811C115.732 17.3447 114.51 18.6488 112.554 18.6895C110.597 18.6895 109.375 17.3447 109.375 14.9811V14.655C109.375 12.0877 110.638 10.7428 112.554 10.7428C114.51 10.7428 115.732 12.2099 115.732 14.655Z" fill="#7A8C94"/>
<path d="M119.074 8.17542L123.679 14.492L118.666 21.2977H122.701L125.635 16.9372L128.651 21.2977H132.522L127.591 14.4513L132.278 8.17542H128.366L125.676 12.1284L123.027 8.17542H119.074Z" fill="#7A8C94"/>
</svg>
