<svg width="98" height="27" viewBox="0 0 98 27" fill="none" xmlns="http://www.w3.org/2000/svg">
<path d="M64.8638 0.1875H60.7888V22.9781C64.4922 23.1055 68.18 23.2923 71.8528 23.5372V19.522C69.5295 19.367 67.2 19.2356 64.8638 19.1269V0.1875ZM97.2489 0.189805H92.7724L89.8218 7.02902L87.1709 0.189805H82.7616L87.4998 12.4105L82.3275 24.3995C83.7584 24.539 85.1853 24.688 86.6107 24.8453L89.619 17.8745L92.5981 25.5588C94.1498 25.7583 95.6973 25.9665 97.2421 26.187L97.2489 26.1843L91.9403 12.4931L97.2489 0.189805ZM46.8004 22.7789L50.8756 22.778V13.5074H56.3998V9.49219H50.8756V4.24141H58.1766V0.190009H46.8004V22.7789ZM31.5827 4.24114H35.8478V23.0177C37.2039 22.9664 38.5627 22.9242 39.9229 22.8886V4.24114H44.1878V0.189805H31.5827V4.24114ZM17.6508 24.1847C21.4067 23.8433 25.18 23.562 28.9704 23.3437V19.328C26.5486 19.468 24.1337 19.6337 21.7259 19.8231V13.7441C23.3058 13.7283 25.3861 13.6801 27.2291 13.703V9.68743C25.7567 9.68384 23.3903 9.70798 21.7259 9.72927V4.24141H28.9704V0.190009H17.6508V24.1847ZM9.65703 14.9019L4.34948 0.189805H0.476562V26.1875C1.83232 25.9945 3.19066 25.8097 4.55164 25.6324V11.495L9.27096 25.0519C10.7553 24.8798 12.2423 24.7168 13.7322 24.5635V0.189805H9.65703V14.9019ZM75.2124 23.779C76.5728 23.8831 77.9311 23.9948 79.2881 24.1155V0.189805H75.2124V23.779Z" fill="#7A8C94"/>
</svg>
