<svg width="125" height="29" viewBox="0 0 125 29" fill="none" xmlns="http://www.w3.org/2000/svg">
<path d="M18.9558 9.52083V0.1875H0.289062L9.62243 9.52083H0.289062V18.8542L9.62243 28.1875V18.8542H18.9558L9.62243 9.52083H18.9558Z" fill="#7A8C94"/>
<path d="M35.5145 22.9193V4.25259H46.9052V7.86549H39.8299V12.8834H46.9052V16.4461H39.8299V22.9193H35.5145Z" fill="#7A8C94"/>
<path d="M49.7646 22.8689V10.0732H53.8292V12.7327C54.0299 11.8295 54.4815 11.0768 55.1338 10.575C55.7862 10.0732 56.5388 9.82228 57.3417 9.82228C57.7431 9.82228 58.1446 9.87246 58.3955 9.92264V13.7363C58.2908 13.7258 58.1904 13.7153 58.0944 13.7053C57.7305 13.6673 57.4294 13.6359 57.1912 13.6359C54.9331 13.6359 53.8292 15.0911 53.8292 17.9011V22.8689H49.7646Z" fill="#7A8C94"/>
<path fill-rule="evenodd" clip-rule="evenodd" d="M61.0064 21.3134C62.0601 22.5679 63.5655 23.2202 65.4222 23.2202C66.3254 23.2202 67.1283 23.0697 67.8308 22.6181C68.5835 22.2166 69.1354 21.7149 69.4867 21.0625V22.869H73.5512V10.0231H69.4867V11.8797C69.1354 11.1772 68.5835 10.6754 67.881 10.274C67.1784 9.87256 66.3756 9.67184 65.4723 9.67184C63.6659 9.67184 62.1605 10.3242 61.0566 11.5787C59.9526 12.8833 59.4006 14.489 59.4006 16.446C59.4006 18.403 59.9024 20.0589 61.0064 21.3134ZM68.8344 18.9048C68.3326 19.5571 67.5297 19.8582 66.5763 19.8582C65.6731 19.8582 64.9204 19.5571 64.3684 18.955C63.8164 18.3027 63.5153 17.4998 63.5153 16.4962C63.5153 15.5428 63.8164 14.6898 64.3684 14.0876C64.9204 13.4353 65.6731 13.1342 66.5763 13.1342C67.5297 13.1342 68.2824 13.4353 68.8344 14.0876C69.3863 14.7399 69.6372 15.5428 69.6372 16.4962C69.6372 17.4496 69.3362 18.2525 68.8344 18.9048Z" fill="#7A8C94"/>
<path d="M76.9125 22.9194V10.0736H80.977V11.9302C81.2781 11.2779 81.7297 10.7259 82.382 10.3245C83.0343 9.92303 83.787 9.72232 84.6401 9.72232C86.6473 9.72232 88.0021 10.5252 88.6544 12.0807C89.0057 11.3782 89.5577 10.7761 90.2602 10.3746C91.0129 9.92303 91.8157 9.72232 92.719 9.72232C95.7799 9.72232 97.2853 11.4786 97.2853 14.941V22.9194H93.1706V15.6936C93.1706 13.9875 92.5182 13.1847 91.2638 13.1847C89.8086 13.1847 89.106 14.2384 89.106 16.346V22.9696H85.0917V15.6435C85.0917 13.9875 84.4394 13.1345 83.1849 13.1345C82.4824 13.1345 81.9304 13.3854 81.5791 13.837C81.2279 14.2886 81.0272 15.1417 81.0272 16.2958V22.9194H76.9125Z" fill="#7A8C94"/>
<path fill-rule="evenodd" clip-rule="evenodd" d="M113.17 17.2299L113.17 17.2289C113.209 16.6959 113.243 16.2449 113.243 15.794C113.243 13.9875 112.59 12.5324 111.436 11.4284C110.182 10.2743 108.576 9.72232 106.569 9.72232C104.512 9.72232 102.805 10.3245 101.551 11.5288C100.296 12.7331 99.6441 14.389 99.6441 16.4965C99.6441 18.6542 100.296 20.3101 101.551 21.5144C102.805 22.7187 104.512 23.3209 106.719 23.3209C108.426 23.3209 109.831 22.9195 111.035 22.1166C112.189 21.3639 112.891 20.3101 113.092 19.0556H109.078C108.727 19.8585 107.924 20.26 106.669 20.26C105.766 20.26 105.063 20.0091 104.512 19.5574C103.96 19.1058 103.709 18.4535 103.658 17.6005H113.142C113.152 17.4723 113.161 17.349 113.17 17.2299ZM109.178 15.0413H103.608C103.658 14.2886 103.909 13.6363 104.411 13.1345C104.913 12.6327 105.615 12.3818 106.469 12.3818C107.372 12.3818 108.024 12.6327 108.476 13.0843C108.927 13.5359 109.178 14.1883 109.178 15.0413Z" fill="#7A8C94"/>
<path d="M115.551 22.8689V10.0732H119.615V12.7327C119.816 11.8295 120.267 11.0768 120.92 10.575C121.572 10.0732 122.325 9.82228 123.128 9.82228C123.529 9.82228 123.931 9.87246 124.181 9.92264V13.7363C124.077 13.7258 123.976 13.7153 123.88 13.7053C123.516 13.6673 123.215 13.6359 122.977 13.6359C120.719 13.6359 119.615 15.0911 119.615 17.9011V22.8689H115.551Z" fill="#7A8C94"/>
</svg>
