<svg width="500" height="500" viewBox="0 0 500 500" fill="none" xmlns="http://www.w3.org/2000/svg">
<path d="M0.036532 104.501V234.229C7.48179 232.204 15.0365 230.554 22.6642 229.391C25.3649 228.941 28.1022 228.566 30.8029 228.266C41.7883 226.916 52.8832 226.916 63.8686 228.266C108.175 233.742 149.708 253.207 182.774 283.961C215.839 314.714 238.832 355.257 248.54 400H345.985C354.562 360.62 373.467 324.353 400.584 295.174C427.737 265.996 462.08 244.956 500 234.342V104.688C488.869 106.563 477.81 109.039 466.898 112.077C465.766 112.377 464.635 112.752 463.504 113.089C387.226 137.73 338.65 195.149 306.314 269.296C302.847 277.097 299.854 285.086 297.117 293.224C294.38 285.048 291.35 277.097 287.883 269.296C255.547 195.187 206.971 137.73 130.693 113.089C129.562 112.752 128.431 112.377 127.299 112.077C101.095 104.726 74.1241 100.675 46.9708 100C38.6861 100 30.4744 100.713 22.3357 101.613C14.1971 102.475 7.40876 103.225 0 104.576" fill="#E3D7FF"/>
</svg>
