<svg width="36" height="37" viewBox="0 0 36 37" fill="none" xmlns="http://www.w3.org/2000/svg">
<path fill-rule="evenodd" clip-rule="evenodd" d="M17.8983 36.0934C27.7832 36.0934 35.7965 28.0801 35.7965 18.1951C35.7965 8.3102 27.7832 0.296875 17.8983 0.296875C8.01332 0.296875 0 8.3102 0 18.1951C0 28.0801 8.01332 36.0934 17.8983 36.0934ZM11.1748 7.02619C11.7683 6.74003 12.4489 6.77077 13.0199 7.11451L24.3801 13.7299L21.1263 16.9989L11.1748 7.02619ZM10.0674 8.81502C10.0674 8.51067 10.1349 8.21499 10.2605 7.94918L20.2098 17.9197L10.2622 27.9145C10.1354 27.6544 10.0674 27.363 10.0674 27.0574V8.81502ZM11.1922 28.8219L21.1276 18.8393L24.3823 22.1013L13.0199 28.7267C12.7074 28.9146 12.3623 28.9973 12.0164 28.9973C11.7363 28.9973 11.4558 28.944 11.1922 28.8219ZM28.6946 16.2422C28.6985 16.2443 28.7029 16.2469 28.7068 16.2495C29.2934 16.6054 29.6436 17.2279 29.6436 17.9145C29.6436 18.6012 29.2934 19.2237 28.7068 19.58L25.5426 21.4247L22.0437 17.9184L25.5404 14.4053L28.6946 16.2422Z" fill="white"/>
</svg>
