<svg width="36" height="36" viewBox="0 0 36 36" fill="none" xmlns="http://www.w3.org/2000/svg">
<path fill-rule="evenodd" clip-rule="evenodd" d="M17.8983 35.9137C27.7832 35.9137 35.7965 27.9004 35.7965 18.0154C35.7965 8.13051 27.7832 0.117188 17.8983 0.117188C8.01332 0.117188 0 8.13051 0 18.0154C0 27.9004 8.01332 35.9137 17.8983 35.9137ZM20.4502 6.78364C20.8545 7.01701 21.1437 7.394 21.2646 7.84495C21.3855 8.2959 21.3234 8.76699 21.0899 9.17131L15.0958 19.5536H18.8767L20.895 23.0493H7.62092C6.65714 23.0493 5.87305 22.2652 5.87305 21.3014C5.87305 20.3377 6.65714 19.5536 7.62092 19.5536H11.0592L15.7753 11.385L14.4971 9.17124C14.0153 8.33652 14.3023 7.26549 15.1369 6.78357C15.9716 6.30178 17.0426 6.58878 17.5245 7.42336L17.7936 7.88935L18.0626 7.42343C18.5446 6.58864 19.6157 6.30178 20.4502 6.78364ZM27.9658 19.5534H24.5276L20.6188 12.7832L18.6006 16.279L24.6695 26.7905C24.9029 27.1949 25.2798 27.4842 25.7309 27.6051C25.8815 27.6454 26.0342 27.6654 26.1861 27.6654C26.489 27.6654 26.7879 27.586 27.0573 27.4304C27.8919 26.9485 28.1789 25.8774 27.697 25.0428L26.5458 23.0491H27.9658C28.9296 23.0491 29.7137 22.265 29.7137 21.3012C29.7137 20.3375 28.9296 19.5534 27.9658 19.5534ZM7.89005 25.0427L8.23383 24.4473H12.2704L10.9175 26.7905C10.5941 27.3506 10.0053 27.6641 9.40085 27.6641C9.10448 27.6641 8.8044 27.5888 8.52985 27.4303C7.6952 26.9484 7.4082 25.8773 7.89005 25.0427Z" fill="white"/>
</svg>
