<svg width="18" height="18" viewBox="0 0 18 18" fill="none" xmlns="http://www.w3.org/2000/svg">
<path d="M9.08675 12.0464C10.7556 12.0464 12.1085 10.6935 12.1085 9.02463C12.1085 7.35575 10.7556 6.00285 9.08675 6.00285C7.41787 6.00285 6.06497 7.35575 6.06497 9.02463C6.06497 10.6935 7.41787 12.0464 9.08675 12.0464Z" fill="white"/>
<path fill-rule="evenodd" clip-rule="evenodd" d="M0.265625 9.02442C0.265625 5.50066 0.265625 3.73879 1.10531 2.46976C1.48026 1.90308 1.96558 1.41776 2.53226 1.04281C3.80129 0.203125 5.56316 0.203125 9.08692 0.203125C12.6107 0.203125 14.3725 0.203125 15.6416 1.04281C16.2083 1.41776 16.6936 1.90308 17.0685 2.46976C17.9082 3.73879 17.9082 5.50066 17.9082 9.02442C17.9082 12.5482 17.9082 14.31 17.0685 15.5791C16.6936 16.1458 16.2083 16.6311 15.6416 17.006C14.3725 17.8457 12.6107 17.8457 9.08692 17.8457C5.56316 17.8457 3.80129 17.8457 2.53226 17.006C1.96558 16.6311 1.48026 16.1458 1.10531 15.5791C0.265625 14.31 0.265625 12.5482 0.265625 9.02442ZM13.6536 9.02463C13.6536 11.5469 11.609 13.5915 9.08675 13.5915C6.56453 13.5915 4.51986 11.5469 4.51986 9.02463C4.51986 6.50241 6.56453 4.45774 9.08675 4.45774C11.609 4.45774 13.6536 6.50241 13.6536 9.02463ZM13.834 5.30138C14.4266 5.30138 14.907 4.82095 14.907 4.2283C14.907 3.63565 14.4266 3.15521 13.834 3.15521C13.2413 3.15521 12.7609 3.63565 12.7609 4.2283C12.7609 4.82095 13.2413 5.30138 13.834 5.30138Z" fill="white"/>
</svg>
