<svg width="71" height="30" viewBox="0 0 71 30" fill="none" xmlns="http://www.w3.org/2000/svg">
<path fill-rule="evenodd" clip-rule="evenodd" d="M70.2889 15.6715C70.2889 10.7155 67.8883 6.80499 63.3 6.80499C58.6924 6.80499 55.9046 10.7155 55.9046 15.6328C55.9046 21.4599 59.1958 24.4025 63.9196 24.4025C66.2234 24.4025 67.9657 23.8798 69.2822 23.1441V19.2723C67.9657 19.9305 66.4557 20.337 64.5391 20.337C62.6612 20.337 60.9962 19.6788 60.7833 17.3944H70.2502C70.2502 17.1428 70.2889 16.1361 70.2889 15.6715ZM60.7252 13.8324C60.7252 11.6448 62.061 10.7349 63.2807 10.7349C64.4616 10.7349 65.72 11.6448 65.72 13.8324H60.7252ZM48.4317 6.80499C46.5345 6.80499 45.3148 7.69551 44.6372 8.315L44.3855 7.11474H40.1264V29.6875L44.9663 28.6615L44.9857 23.1828C45.6826 23.6862 46.7087 24.4025 48.4124 24.4025C51.8778 24.4025 55.0334 21.6147 55.0334 15.4779C55.0141 9.86373 51.8197 6.80499 48.4317 6.80499ZM47.2702 20.1434C46.1279 20.1434 45.4503 19.7369 44.9857 19.2336L44.9663 12.0513C45.4697 11.4899 46.1666 11.1027 47.2702 11.1027C49.0319 11.1027 50.2516 13.0774 50.2516 15.6134C50.2516 18.2075 49.0513 20.1434 47.2702 20.1434ZM33.4666 5.6628L38.3259 4.61741V0.6875L33.4666 1.71353V5.6628ZM33.4666 7.1341H38.3259V24.0733H33.4666V7.1341ZM28.2589 8.56667L27.9491 7.1341H23.7674V24.0733H28.6073V12.5934C29.7496 11.1027 31.6855 11.3737 32.2857 11.5867V7.1341C31.6662 6.90179 29.4011 6.47588 28.2589 8.56667ZM18.579 2.93316L13.8552 3.93984L13.8358 19.4465C13.8358 22.3117 15.9848 24.4218 18.85 24.4218C20.4375 24.4218 21.5991 24.1314 22.238 23.783V19.8531C21.6185 20.1047 18.5596 20.9952 18.5596 18.1301V11.2576H22.238V7.1341H18.5596L18.579 2.93316ZM5.49177 12.0513C5.49177 11.2963 6.11128 11.0059 7.13735 11.0059C8.60869 11.0059 10.4672 11.4512 11.9386 12.2449V7.69551C10.3317 7.05666 8.74421 6.80499 7.13735 6.80499C3.20732 6.80499 0.59375 8.85706 0.59375 12.2836C0.59375 17.6268 7.95046 16.7749 7.95046 19.0787C7.95046 19.9692 7.17607 20.2596 6.09192 20.2596C4.48506 20.2596 2.43293 19.6014 0.806707 18.7109V23.3183C2.60717 24.0927 4.42698 24.4218 6.09192 24.4218C10.1188 24.4218 12.8872 22.4278 12.8872 18.9625C12.8678 13.1935 5.49177 14.2195 5.49177 12.0513Z" fill="#7A8C94"/>
</svg>
