<svg width="95" height="94" viewBox="0 0 95 94" fill="none" xmlns="http://www.w3.org/2000/svg">
<circle cx="47.4918" cy="46.859" r="38.8121" fill="white"/>
<circle opacity="0.2" cx="47.4917" cy="46.8589" r="46.8276" fill="white"/>
<path d="M56.9573 42.0154V38.2275C56.9573 32.9976 52.7175 28.7578 47.4875 28.7578C42.2575 28.7578 38.0178 32.9976 38.0178 38.2275V42.0154M47.4875 50.5382V54.3261M41.4269 62.8489H53.5481C56.7303 62.8489 58.3213 62.8489 59.5368 62.2296C60.6059 61.6848 61.4751 60.8156 62.0198 59.7465C62.6391 58.5311 62.6391 56.94 62.6391 53.7579V51.1064C62.6391 47.9243 62.6391 46.3332 62.0198 45.1178C61.4751 44.0487 60.6059 43.1795 59.5368 42.6347C58.3213 42.0154 56.7303 42.0154 53.5481 42.0154H41.4269C38.2448 42.0154 36.6537 42.0154 35.4383 42.6347C34.3692 43.1795 33.5 44.0487 32.9552 45.1178C32.3359 46.3332 32.3359 47.9243 32.3359 51.1064V53.7579C32.3359 56.94 32.3359 58.5311 32.9552 59.7465C33.5 60.8156 34.3692 61.6848 35.4383 62.2296C36.6537 62.8489 38.2448 62.8489 41.4269 62.8489Z" stroke="#091D26" stroke-width="2" stroke-linecap="round" stroke-linejoin="round"/>
</svg>
