<svg width="18" height="16" viewBox="0 0 18 16" fill="none" xmlns="http://www.w3.org/2000/svg">
<path d="M12.0695 0.870365V0.867188H12.8967L13.199 0.927556C13.4005 0.966749 13.5835 1.01811 13.7478 1.08166C13.9122 1.1452 14.0713 1.21935 14.2251 1.30407C14.3789 1.38879 14.5184 1.47512 14.6435 1.56302C14.7676 1.64987 14.879 1.74201 14.9776 1.83945C15.0751 1.93794 15.2273 1.96336 15.4341 1.9157C15.641 1.86804 15.8637 1.80184 16.1023 1.71712C16.3409 1.6324 16.5769 1.53708 16.8102 1.43116C17.0436 1.32524 17.1857 1.258 17.2366 1.2294C17.2864 1.19976 17.313 1.18387 17.3161 1.18174L17.3193 1.17698L17.3352 1.16903L17.3511 1.16109L17.367 1.15315L17.3829 1.1452L17.3861 1.14044L17.3909 1.13726L17.3957 1.13408L17.3989 1.12932L17.4148 1.12455L17.4307 1.12137L17.4275 1.1452L17.4227 1.16903L17.4148 1.19286L17.4068 1.21669L17.3989 1.23258L17.3909 1.24847L17.3829 1.27229C17.3776 1.28818 17.3723 1.30936 17.367 1.33584C17.3617 1.36232 17.3114 1.46822 17.2159 1.65357C17.1205 1.83892 17.0011 2.02691 16.858 2.21755C16.7148 2.40818 16.5865 2.55221 16.473 2.64966C16.3584 2.74816 16.2826 2.81699 16.2455 2.85619C16.2084 2.89643 16.1633 2.93349 16.1103 2.96739L16.0307 3.01982L16.0148 3.02776L15.9989 3.0357L15.9957 3.04047L15.9909 3.04365L15.9862 3.04682L15.983 3.05159L15.9671 3.05953L15.9512 3.06748L15.948 3.07224L15.9432 3.07542L15.9384 3.0786L15.9353 3.08336L15.9321 3.08813L15.9273 3.09131L15.9225 3.09448L15.9194 3.09925H15.9989L16.4443 3.00393C16.7413 2.94038 17.025 2.8636 17.2954 2.77358L17.725 2.6306L17.7727 2.61471L17.7966 2.60677L17.8125 2.59882L17.8284 2.59088L17.8443 2.58294L17.8602 2.57499L17.892 2.57023L17.9238 2.56705V2.59882L17.9159 2.602L17.9079 2.60677L17.9048 2.61153L17.9 2.61471L17.8952 2.61789L17.892 2.62265L17.8889 2.62742L17.8841 2.6306L17.8793 2.63377L17.8761 2.63854L17.8729 2.64331L17.8682 2.64648L17.8602 2.66237L17.8522 2.67826L17.8475 2.68143C17.8454 2.68461 17.778 2.77462 17.6454 2.95151C17.5129 3.12943 17.4413 3.21945 17.4307 3.22158C17.4201 3.22475 17.4052 3.24064 17.3861 3.26924C17.3681 3.29888 17.2557 3.41698 17.0489 3.62351C16.8421 3.83003 16.6395 4.01378 16.4412 4.17477C16.2418 4.33681 16.141 4.53592 16.1389 4.77211C16.1357 5.00723 16.1235 5.27307 16.1023 5.56961C16.0811 5.86617 16.0413 6.18653 15.983 6.53075C15.9247 6.87496 15.8345 7.26418 15.7125 7.69841C15.5906 8.13264 15.4421 8.55629 15.2671 8.96934C15.0921 9.38239 14.9092 9.75307 14.7183 10.0814C14.5274 10.4097 14.3524 10.6877 14.1933 10.9154C14.0342 11.1431 13.8725 11.3576 13.7081 11.5588C13.5437 11.7601 13.3358 11.9867 13.0845 12.2388C12.832 12.4898 12.6942 12.6275 12.6708 12.6518C12.6465 12.6751 12.5425 12.762 12.359 12.9124C12.1766 13.0638 11.9804 13.2153 11.7704 13.3667C11.5615 13.5171 11.3695 13.6426 11.1945 13.7433C11.0195 13.8439 10.8085 13.9588 10.5614 14.088C10.3153 14.2183 10.0491 14.339 9.76275 14.4502C9.47639 14.5614 9.17413 14.6647 8.85596 14.76C8.53779 14.8553 8.23023 14.9295 7.93326 14.9824C7.63631 15.0354 7.29958 15.0804 6.92307 15.1174L6.35832 15.173V15.181H5.32426V15.173L5.18904 15.1651C5.0989 15.1598 5.02466 15.1545 4.96632 15.1492C4.908 15.1439 4.68792 15.1148 4.30611 15.0618C3.92431 15.0089 3.6247 14.9559 3.40728 14.903C3.18987 14.85 2.86639 14.7494 2.43686 14.6011C2.00733 14.4529 1.63984 14.303 1.3344 14.1515C1.03002 14.0011 0.839115 13.9058 0.761688 13.8656C0.685327 13.8264 0.599421 13.7777 0.50397 13.7194L0.360793 13.632L0.357627 13.6273L0.352838 13.6241L0.348066 13.6209L0.344884 13.6162L0.328976 13.6082L0.313067 13.6003L0.309901 13.5955L0.305113 13.5923L0.30034 13.5892L0.297159 13.5844L0.293993 13.5796L0.289204 13.5764H0.28125V13.5447L0.297159 13.5478L0.313067 13.5526L0.384656 13.5606C0.432381 13.5658 0.562306 13.5738 0.774415 13.5844C0.98654 13.595 1.2119 13.595 1.45053 13.5844C1.68916 13.5738 1.9331 13.55 2.18232 13.5129C2.43156 13.4758 2.72587 13.4123 3.06525 13.3223C3.40464 13.2322 3.71645 13.1253 4.00069 13.0013C4.28386 12.8764 4.48536 12.7832 4.60521 12.7217C4.72398 12.6614 4.90534 12.5491 5.14927 12.3849L5.51516 12.1387L5.51835 12.1339L5.52312 12.1308L5.52791 12.1276L5.53107 12.1228L5.53425 12.1181L5.53903 12.1149L5.54381 12.1117L5.54698 12.1069L5.56289 12.1022L5.5788 12.099L5.58198 12.0831L5.58675 12.0672L5.59154 12.064L5.59471 12.0593L5.46744 12.0513C5.3826 12.046 5.3004 12.0407 5.22086 12.0354C5.14131 12.0302 5.0167 12.0063 4.847 11.964C4.67732 11.9216 4.49438 11.858 4.29816 11.7733C4.10196 11.6886 3.91106 11.588 3.72545 11.4715C3.53986 11.355 3.40569 11.2581 3.32297 11.1807C3.24131 11.1045 3.13524 10.9965 3.00479 10.8567C2.87541 10.7158 2.76298 10.5712 2.66753 10.423C2.57208 10.2747 2.48088 10.1036 2.39392 9.90982L2.26186 9.62069L2.25391 9.59686L2.24596 9.57303L2.24118 9.55714L2.238 9.54125L2.26186 9.54443L2.28573 9.5492L2.46072 9.57303C2.57739 9.58891 2.76034 9.5942 3.00957 9.58891C3.25881 9.58362 3.43114 9.57303 3.52659 9.55714C3.62205 9.54125 3.68038 9.53066 3.70159 9.52537L3.73341 9.51742L3.77318 9.50948L3.81295 9.50154L3.81613 9.49677L3.8209 9.49359L3.82569 9.49042L3.82886 9.48565L3.79704 9.47771L3.76522 9.46976L3.73341 9.46182L3.70159 9.45388L3.66977 9.44593C3.64857 9.44064 3.61145 9.43005 3.55841 9.41416C3.50539 9.39827 3.36221 9.34002 3.12888 9.23941C2.89557 9.1388 2.70996 9.04083 2.57208 8.94551C2.43386 8.84991 2.30207 8.74536 2.17755 8.63254C2.05346 8.51816 1.91719 8.37094 1.7687 8.1909C1.62023 8.01085 1.48766 7.80167 1.37099 7.56338C1.25433 7.32508 1.16683 7.09738 1.10849 6.88025C1.05039 6.66441 1.01206 6.44374 0.993969 6.22096L0.965318 5.88734L0.981226 5.89052L0.997135 5.89529L1.01304 5.90323L1.02895 5.91117L1.04486 5.91912L1.06077 5.92706L1.30735 6.03827C1.47175 6.11241 1.67591 6.17595 1.91983 6.2289C2.16377 6.28185 2.30959 6.31099 2.35732 6.31628L2.4289 6.32422H2.57208L2.56892 6.31946L2.56413 6.31628L2.55935 6.3131L2.55617 6.30834L2.55301 6.30357L2.54822 6.30039L2.54345 6.29722L2.54026 6.29245L2.52436 6.28451L2.50845 6.27656L2.50528 6.2718L2.50049 6.26862L2.49572 6.26544L2.49254 6.26068L2.47663 6.25273L2.46072 6.24479L2.45756 6.24002C2.45437 6.2379 2.40876 6.20401 2.32073 6.13835C2.23375 6.07163 2.14255 5.98532 2.0471 5.8794C1.95165 5.77348 1.8562 5.66228 1.76075 5.54578C1.66512 5.42902 1.57995 5.30409 1.50621 5.17245C1.43198 5.04006 1.35349 4.87165 1.27076 4.66725C1.1891 4.46391 1.12706 4.25897 1.08463 4.05244C1.04222 3.84592 1.01836 3.64205 1.01304 3.44081C1.00775 3.23958 1.01304 3.06748 1.02895 2.9245C1.04486 2.78152 1.07668 2.62 1.1244 2.43996C1.17213 2.25992 1.24108 2.06928 1.33121 1.86804L1.46644 1.5662L1.47439 1.54237L1.48235 1.51854L1.48713 1.51536L1.4903 1.51059L1.49348 1.50583L1.49825 1.50265L1.50304 1.50583L1.50621 1.51059L1.50939 1.51536L1.51416 1.51854L1.51895 1.52171L1.52212 1.52648L1.5253 1.53125L1.53007 1.53442L1.53803 1.55031L1.54598 1.5662L1.55077 1.56937L1.55393 1.57414L1.7687 1.81244C1.91188 1.9713 2.08157 2.14871 2.27777 2.34464C2.47399 2.54057 2.58269 2.64224 2.6039 2.64966C2.62512 2.65813 2.65162 2.68248 2.68344 2.72274C2.71526 2.76193 2.82132 2.85566 3.00161 3.00393C3.18192 3.1522 3.41789 3.32432 3.70954 3.52024C4.00121 3.71617 4.32468 3.90947 4.67996 4.1001C5.03527 4.29074 5.41707 4.46284 5.82538 4.61642C6.23371 4.76999 6.52006 4.8706 6.68444 4.91826C6.84884 4.96592 7.12988 5.02682 7.5276 5.10096C7.92531 5.1751 8.22493 5.22276 8.42643 5.24394C8.62794 5.26511 8.76582 5.2773 8.84005 5.28048L8.95141 5.28365L8.94825 5.25982L8.94346 5.23599L8.91164 5.03741C8.89043 4.90503 8.87982 4.71968 8.87982 4.48138C8.87982 4.24308 8.89839 4.02332 8.9355 3.82209C8.97263 3.62085 9.02831 3.41698 9.10254 3.21046C9.17679 3.00393 9.24944 2.83817 9.32049 2.71321C9.39262 2.58929 9.487 2.4479 9.60366 2.28904C9.72033 2.13017 9.87147 1.96601 10.0571 1.79655C10.2427 1.62709 10.4548 1.47617 10.6934 1.34378C10.932 1.2114 11.1521 1.11078 11.3536 1.04194C11.5551 0.973103 11.7248 0.928081 11.8627 0.906904C12.0006 0.885727 12.0695 0.873542 12.0695 0.870365V0.870365Z" fill="white"/>
</svg>
