<svg width="34" height="35" viewBox="0 0 34 35" fill="none" xmlns="http://www.w3.org/2000/svg">
<g clip-path="url(#clip0_1158_6091)">
<path d="M12.7832 14.7787C12.7832 14.2546 13.1882 13.826 13.7021 13.7865V8.41954C13.1882 8.38003 12.7832 7.95144 12.7832 7.42736C12.7832 6.87725 13.2292 6.43127 13.7793 6.43127H14.1879C14.2274 5.91735 14.656 5.51234 15.1801 5.51234C15.7041 5.51234 16.1327 5.91735 16.1722 6.43127H17.7714C17.8109 5.91735 18.2395 5.51234 18.7636 5.51234C19.3137 5.51234 19.7597 5.95832 19.7597 6.50843V6.79464C20.623 7.28087 21.2077 8.20578 21.2077 9.26516C21.2077 9.96601 20.9515 10.6078 20.5284 11.103C20.9515 11.5983 21.2077 12.24 21.2077 12.9408C21.2077 14.5035 19.9364 15.7748 18.3738 15.7748H25.8778C26.6571 14.3426 27.1002 12.7023 27.1002 10.9603C27.1003 5.38849 22.5673 0.855469 16.9955 0.855469C11.4236 0.855469 6.89062 5.38849 6.89062 10.9603C6.89062 12.7023 7.33369 14.3426 8.11303 15.7748H13.7792C13.2292 15.7748 12.7832 15.3288 12.7832 14.7787Z" fill="#152831"/>
<path d="M15.6953 10.1053H18.3749C18.839 10.1053 19.2166 9.72769 19.2166 9.26357C19.2166 8.79946 18.839 8.42188 18.3749 8.42188H15.6953V10.1053Z" fill="#152831"/>
<path d="M18.3749 12.0977H15.6953V13.7811H18.3749C18.839 13.7811 19.2166 13.4035 19.2166 12.9394C19.2166 12.4752 18.839 12.0977 18.3749 12.0977Z" fill="#152831"/>
<path d="M9.72947 26.3101C9.72947 25.2797 8.89115 24.4414 7.86079 24.4414H4V28.1787H7.86086C8.89122 28.1787 9.72947 27.3405 9.72947 26.3101Z" fill="#152831"/>
<path d="M27.2038 17.7656H6.79424C5.25348 17.7656 4 19.0191 4 20.5599V22.4491H7.86086C9.98971 22.4491 11.7217 24.1811 11.7217 26.3099C11.7217 28.4388 9.98971 30.1707 7.86086 30.1707H4V32.06C4 33.6007 5.25348 34.8542 6.79424 34.8542H27.2038C28.7446 34.8542 29.998 33.6007 29.998 32.06V20.5599C29.998 19.019 28.7446 17.7656 27.2038 17.7656Z" fill="#152831"/>
</g>
<defs>
<clipPath id="clip0_1158_6091">
<rect width="34" height="34" fill="white" transform="translate(0 0.855469)"/>
</clipPath>
</defs>
</svg>
