<svg width="20" height="14" viewBox="0 0 20 14" fill="none" xmlns="http://www.w3.org/2000/svg">
<path d="M10.4927 13.8725L6.51121 13.7981C5.22208 13.7722 3.92974 13.824 2.66588 13.5553C0.74327 13.1539 0.607065 11.1859 0.464541 9.5351C0.268157 7.21427 0.344183 4.85133 0.714784 2.54988C0.924001 1.25852 1.74735 0.487961 3.02064 0.404109C7.31891 0.0997989 11.6458 0.135863 15.9345 0.277834C16.3875 0.290849 16.8435 0.361984 17.2901 0.442955C19.4948 0.837872 19.5486 3.06809 19.6915 4.94551C19.834 6.84231 19.7738 8.74884 19.5014 10.6327C19.2829 12.1925 18.8647 13.5006 17.1001 13.6268C14.8891 13.792 12.7289 13.9249 10.5117 13.8826C10.5118 13.8725 10.4991 13.8725 10.4927 13.8725ZM8.15199 9.92356C9.81814 8.94595 11.4525 7.98464 13.1091 7.01359C11.4399 6.03598 9.80861 5.07467 8.15199 4.10362V9.92356Z" fill="white"/>
</svg>
