<svg width="38" height="39" viewBox="0 0 38 39" fill="none" xmlns="http://www.w3.org/2000/svg">
<g clip-path="url(#clip0_1158_6098)">
<path d="M18.9973 14.3594C18.7856 14.3594 18.5764 14.3707 18.3704 14.3926C18.316 14.9698 18.1743 15.5486 17.9414 16.1136C17.7328 16.6196 17.4651 17.0819 17.1484 17.4956C17.8508 17.9805 18.4755 18.5702 18.9974 19.2439C19.5194 18.5702 20.1441 17.9805 20.8464 17.4956C20.5294 17.0819 20.2616 16.6195 20.0531 16.1135C19.8201 15.5484 19.6783 14.9696 19.6237 14.3926C19.4177 14.3707 19.2088 14.3594 18.9973 14.3594Z" fill="#E3D7FF"/>
<path d="M19.0002 22.4492C15.1273 22.4492 11.9766 25.5907 11.9766 29.4521C11.9766 33.3134 15.1273 36.4549 19.0002 36.4549C22.8731 36.4549 26.0238 33.3134 26.0238 29.4521C26.0238 25.5907 22.8731 22.4492 19.0002 22.4492ZM21.7907 30.6106H20.1984V32.275C20.1984 32.9149 19.6797 33.4336 19.0398 33.4336C19.0265 33.4336 19.0135 33.432 19.0002 33.4316C18.3789 33.4105 17.8813 32.9015 17.8813 32.275V30.6106H16.2097C15.5699 30.6106 15.0511 30.0919 15.0511 29.4521C15.0511 28.8122 15.5699 28.2935 16.2097 28.2935H17.8813V26.7082C17.8813 26.0817 18.3788 25.5727 19.0002 25.5516C19.0135 25.5512 19.0265 25.5496 19.0398 25.5496C19.6797 25.5496 20.1984 26.0683 20.1984 26.7082V28.2935H21.7907C22.4305 28.2935 22.9492 28.8122 22.9492 29.4521C22.9492 30.0919 22.4305 30.6106 21.7907 30.6106Z" fill="#E3D7FF"/>
<path d="M7.80618 17.495C7.48941 17.0814 7.22178 16.6192 7.0133 16.1135C6.7807 15.5493 6.63902 14.9715 6.58417 14.3955C6.36893 14.3718 6.15029 14.3594 5.92882 14.3594C2.65963 14.3594 0 17.0191 0 20.2883V21.879C0 22.0919 0.173227 22.2652 0.38616 22.2652H4.48333C4.97971 20.3006 6.18346 18.6151 7.80618 17.495Z" fill="#E3D7FF"/>
<path d="M16.92 20.366C16.4603 19.8452 15.9108 19.4058 15.2961 19.0716C14.4579 19.52 13.5001 19.7649 12.4812 19.7649H12.4762C11.4549 19.7649 10.4949 19.5196 9.65516 19.0703C7.80548 20.075 6.54688 22.0353 6.54688 24.2841V25.8748C6.54688 26.0878 6.7201 26.261 6.93304 26.261H10.2208C11.2979 23.3224 13.8176 21.0715 16.92 20.366Z" fill="#E3D7FF"/>
<path d="M28.3438 19.0703C27.5053 19.5192 26.547 19.7644 25.5277 19.7644H25.5226C24.5018 19.7644 23.5423 19.5193 22.7029 19.0705C22.0879 19.4048 21.538 19.8444 21.0781 20.3654C24.1805 21.071 26.7002 23.3219 27.7773 26.2605H31.065C31.2779 26.2605 31.4512 26.0872 31.4512 25.8743V24.2836C31.4511 22.0352 30.193 20.0752 28.3438 19.0703Z" fill="#E3D7FF"/>
<path d="M32.0725 14.3789C31.8502 14.3789 31.6308 14.3914 31.4148 14.4153C31.3588 14.9846 31.2175 15.5553 30.9877 16.1125C30.7793 16.6181 30.5117 17.0802 30.1953 17.4936C31.8236 18.6177 33.0299 20.3112 33.523 22.2847H37.6151C37.828 22.2847 38.0013 22.1115 38.0013 21.8985V20.3078C38.0013 17.0386 35.3416 14.3789 32.0725 14.3789Z" fill="#E3D7FF"/>
<path d="M24.6373 8.09549C24.9276 8.05304 25.2228 8.03114 25.5205 8.03114C25.8294 8.03114 26.1354 8.05512 26.4359 8.10069C26.7165 7.24858 27.2007 6.45273 27.8797 5.77386C28.1244 5.52374 28.3941 5.2993 28.682 5.10002C28.5185 4.80589 28.3103 4.52936 28.0582 4.27887C27.4266 3.62745 26.5016 3.25391 25.5205 3.25391C24.5393 3.25391 23.6142 3.62752 22.9774 4.28399C22.7359 4.52394 22.5349 4.7883 22.375 5.06945C22.6662 5.26984 22.9384 5.49598 23.185 5.74825C23.8698 6.43284 24.3569 7.23596 24.6373 8.09549Z" fill="#E3D7FF"/>
<path d="M5.92635 13.4507H5.9314C6.15064 13.4507 6.36513 13.4317 6.57354 13.3956C6.68108 12.0523 7.26496 10.7689 8.28532 9.74878C8.6107 9.41613 8.97904 9.12734 9.37849 8.88569C9.21231 8.33246 8.90497 7.81493 8.46397 7.37667C7.83229 6.72518 6.90723 6.35156 5.92606 6.35156C4.94481 6.35156 4.01982 6.72518 3.3831 7.38187C2.34686 8.41106 2.04776 9.88682 2.60276 11.233C3.16653 12.601 4.4379 13.4508 5.92635 13.4507Z" fill="#E3D7FF"/>
<path d="M11.5715 8.09995C11.8705 8.05482 12.1748 8.03114 12.4818 8.03114C12.7791 8.03114 13.0737 8.05296 13.3635 8.09519C13.6433 7.2373 14.1293 6.43604 14.8123 5.75315C15.0604 5.49947 15.3341 5.27206 15.6268 5.07071C15.4658 4.78756 15.2632 4.52097 15.0195 4.27887C14.3879 3.62752 13.4629 3.25391 12.4818 3.25391C11.5006 3.25391 10.5755 3.62752 9.93872 4.28399C9.69306 4.52802 9.4894 4.79736 9.32812 5.08392C9.61149 5.28082 9.87682 5.50199 10.1177 5.74832C10.8036 6.43418 11.2913 7.23886 11.5715 8.09995Z" fill="#E3D7FF"/>
<path d="M29.7084 9.74639C30.7357 10.7737 31.3214 12.0666 31.4253 13.4184C31.6355 13.4548 31.8518 13.474 32.0731 13.474H32.0781C33.5605 13.474 34.8318 12.6243 35.3957 11.2564C35.9507 9.91019 35.6518 8.43442 34.6105 7.40004C33.9789 6.74862 33.0539 6.375 32.0727 6.375C31.0915 6.375 30.1665 6.74862 29.5297 7.40508C29.0959 7.83592 28.7918 8.34514 28.625 8.8902C29.021 9.1303 29.386 9.41663 29.7084 9.74639Z" fill="#E3D7FF"/>
<path d="M25.5199 10.3477C24.5386 10.3477 23.6136 10.7212 22.9768 11.3778C21.9406 12.407 21.6415 13.8828 22.1965 15.2289C22.7604 16.5969 24.0318 17.4468 25.5203 17.4467H25.5253C27.0078 17.4467 28.279 16.597 28.8429 15.2292C29.3979 13.883 29.0989 12.4072 28.0576 11.3726C27.426 10.7212 26.501 10.3477 25.5199 10.3477Z" fill="#E3D7FF"/>
<path d="M12.4808 10.3477C11.4996 10.3477 10.5746 10.7212 9.93779 11.3778C8.90154 12.4071 8.60244 13.8828 9.15745 15.229C9.72137 16.5969 10.9927 17.4468 12.4812 17.4468H12.4862C13.9687 17.4468 15.24 16.597 15.8038 15.2291C16.3588 13.8828 16.0599 12.4072 15.0186 11.3727C14.3869 10.7212 13.462 10.3477 12.4808 10.3477Z" fill="#E3D7FF"/>
<path d="M16.6674 9.74351C17.3514 10.4276 17.8387 11.2297 18.1194 12.0883L18.1327 12.0869C18.4215 12.0564 18.7143 12.0409 19.003 12.0409C19.2915 12.0409 19.584 12.0564 19.8724 12.0868L19.8853 12.0882C20.1653 11.2312 20.6512 10.4309 21.3335 9.7487C21.6656 9.40923 22.0419 9.11488 22.4509 8.87032C22.2836 8.32289 21.9779 7.81078 21.5409 7.37652C20.9093 6.72511 19.9842 6.35156 19.0031 6.35156C18.0219 6.35156 17.0969 6.72518 16.4602 7.38179C16.0258 7.81323 15.7215 8.32318 15.5547 8.86906C15.962 9.11257 16.3369 9.40552 16.6674 9.74351Z" fill="#E3D7FF"/>
</g>
<defs>
<clipPath id="clip0_1158_6098">
<rect width="38" height="38" fill="white" transform="translate(0 0.855469)"/>
</clipPath>
</defs>
</svg>
