<svg width="174" height="112" viewBox="0 0 174 112" fill="none" xmlns="http://www.w3.org/2000/svg">
<path fill-rule="evenodd" clip-rule="evenodd" d="M0 112H28.8H40.32L43.36 86.4H58.56L61.6 112H73.12L58.88 0H44.32L28.8 112V100.8H11.68V60.8H26.24V49.6H11.68V11.2H28.48V0H0V112ZM44.64 75.2H57.28L53.28 40C52.5333 33.6 51.9467 26.1333 51.52 17.6H50.88C50.3467 23.8933 49.6 31.36 48.64 40L44.64 75.2ZM104.78 112H119.98L109.9 61.6C112.14 60.1067 114.007 57.44 115.5 53.6C117.1 49.76 117.9 45.12 117.9 39.68V26.4C117.9 8.8 110.327 0 95.18 0H77.1V112H91.66V66.08H96.14L104.78 112ZM101.26 16C102.647 17.92 103.34 21.1733 103.34 25.76V40.32C103.34 44.9067 102.647 48.2133 101.26 50.24C99.98 52.16 97.9533 53.12 95.18 53.12H91.66V12.96H95.18C97.9533 12.96 99.98 13.9733 101.26 16ZM125.562 0V112H142.042L141.242 66.4L139.803 34.88H140.122L155.322 112H173.083V0H156.602L157.402 46.08C157.509 51.6267 157.883 59.6267 158.523 70.08C158.523 71.36 158.629 73.7067 158.842 77.12H158.523L143.322 0H125.562Z" fill="url(#paint0_linear_1649_5206)"/>
<defs>
<linearGradient id="paint0_linear_1649_5206" x1="173.023" y1="55.9725" x2="0.059161" y2="55.9726" gradientUnits="userSpaceOnUse">
<stop stop-color="#FBF9C6"/>
<stop offset="0.26" stop-color="#E3D7FF"/>
<stop offset="0.575" stop-color="#68FFE4"/>
<stop offset="0.99" stop-color="#F1EBDD"/>
</linearGradient>
</defs>
</svg>
