<svg width="576" height="161" viewBox="0 0 576 161" fill="none" xmlns="http://www.w3.org/2000/svg">
<path fill-rule="evenodd" clip-rule="evenodd" d="M507.571 149.181C513.291 156.514 521.431 160.181 531.991 160.181C543.284 160.181 551.131 155.634 555.531 146.541L558.171 158.421H575.771V69.9809H536.171V98.5809H544.311V118.821C544.311 122.928 543.798 125.934 542.771 127.841C541.744 129.601 540.058 130.481 537.711 130.481C535.364 130.481 533.678 129.601 532.651 127.841C531.624 125.934 531.111 122.928 531.111 118.821V41.8209C531.111 37.7143 531.624 34.7809 532.651 33.021C533.678 31.1143 535.291 30.1609 537.491 30.1609C539.691 30.1609 541.304 31.1143 542.331 33.021C543.358 34.7809 543.871 37.7143 543.871 41.8209V55.0209H575.771V44.0209C575.771 29.9409 572.544 19.1609 566.091 11.6809C559.638 4.20094 550.324 0.460938 538.151 0.460938C525.684 0.460938 516.078 4.27428 509.331 11.9009C502.584 19.3809 499.211 30.0143 499.211 43.8009V116.841C499.211 130.921 501.998 141.701 507.571 149.181ZM421.936 3.32092V157.321H451.636L449.436 94.6209C449.142 86.9943 448.556 76.2876 447.676 62.5009H448.116L467.036 157.321H498.056V3.32092H468.356L470.556 67.1209C470.996 78.4143 471.582 88.8276 472.316 98.3609H471.876L452.956 3.32092H421.936ZM418.797 157.321H390.637V3.32092H418.797V157.321ZM317.203 157.321H345.363V93.3009H358.123V157.321H386.283V3.32092H358.123V66.2409H345.363V3.32092H319.338H317.203H268.956H260.158H244.976L233.756 69.9809H233.096L222.976 3.32092H197.896L220.996 102.981V157.321H245.196V102.981L263.397 26.6409H277.758V157.321H301.958V26.6409H317.203V157.321ZM202.321 157.321H181.421L169.541 94.1809H163.381V157.321H143.361V3.32092H168.221C189.048 3.32092 199.461 15.4209 199.461 39.6209V57.8809C199.461 65.3609 198.361 71.7409 196.161 77.0209C194.108 82.3009 191.541 85.9676 188.461 88.0209L202.321 157.321ZM179.441 38.7409C179.441 32.4343 178.488 27.9609 176.581 25.3209C174.821 22.5343 172.035 21.1409 168.221 21.1409H163.381V76.3609H168.221C172.035 76.3609 174.821 75.0409 176.581 72.4009C178.488 69.6143 179.441 65.0676 179.441 58.7609V38.7409ZM96.3535 157.321H140.134V137.961H116.374V88.9009H137.054V69.5409H116.374V22.4609H139.694V3.32092H96.3535V157.321ZM53.8992 157.321L37.0692 18.7209H16.06V71.5209H36.08V86.9209H16.06V141.921H39.6V157.321H0V3.32092H35.1992H39.16H51.2592L61.5992 96.8209C62.6259 105.474 63.5059 117.208 64.2392 132.021H64.8992C66.0726 118.381 67.1726 106.648 68.1992 96.8209L79.4192 3.32092H95.2592L73.9192 157.321H53.8992Z" fill="url(#paint0_linear_1649_5258)"/>
<defs>
<linearGradient id="paint0_linear_1649_5258" x1="575.574" y1="80.2818" x2="0.196803" y2="80.2819" gradientUnits="userSpaceOnUse">
<stop stop-color="#FBF9C6"/>
<stop offset="0.26" stop-color="#E3D7FF"/>
<stop offset="0.575" stop-color="#68FFE4"/>
<stop offset="0.99" stop-color="#F1EBDD"/>
</linearGradient>
</defs>
</svg>
