<svg width="1024" height="1024" viewBox="0 0 1024 1024" fill="none" xmlns="http://www.w3.org/2000/svg">
<path d="M164.285 309.601V490.062C174.642 487.245 185.151 484.949 195.762 483.332C199.519 482.706 203.326 482.184 207.083 481.767C222.365 479.889 237.798 479.889 253.08 481.767C314.713 489.384 372.487 516.461 418.484 559.241C464.48 602.022 496.465 658.419 509.969 720.659H645.521C657.452 665.879 683.75 615.43 721.471 574.84C759.243 534.251 807.016 504.983 859.765 490.219V309.862C844.281 312.471 828.898 315.914 813.718 320.14C812.144 320.557 810.57 321.079 808.996 321.549C702.89 355.825 635.317 435.7 590.336 538.842C585.513 549.694 581.35 560.806 577.542 572.128C573.734 560.754 569.521 549.694 564.698 538.842C519.717 435.752 452.143 355.825 346.037 321.549C344.463 321.079 342.889 320.557 341.316 320.14C304.864 309.914 267.346 304.28 229.574 303.341C218.049 303.341 206.626 304.332 195.305 305.584C183.983 306.784 174.54 307.828 164.234 309.706" fill="#091D26"/>
</svg>
