<svg width="288" height="272" viewBox="0 0 288 272" fill="none" xmlns="http://www.w3.org/2000/svg">
<path d="M83.6405 210.163C83.6405 210.163 41.793 219.775 9.38816 234.114C4.97549 236.066 2.17009 236.384 0.106244 239.32C0.172629 247.465 -0.259422 272.438 0.258192 271.994L287.84 271.734C287.851 264.054 288.194 238.791 287.84 235.028C285.509 232.171 285.101 232.032 282.058 230.472C279.016 228.909 190.762 206 190.762 206L83.6405 210.163Z" fill="black"/>
<path d="M195.403 140.27C195.525 139.943 195.667 139.827 195.769 139.523C195.939 139.001 196.002 138.45 196.098 137.9C196.231 137.149 196.381 136.395 196.51 135.628C196.647 134.819 196.752 133.974 196.921 133.193C197.091 132.412 197.31 131.694 197.58 131.002C197.967 130.002 198.29 129.104 198.567 128.243C199.01 126.861 199.428 125.204 199.718 123.455C199.936 122.16 200.133 120.779 199.883 119.397C199.742 118.536 199.67 117.784 198.858 117.331C198.556 117.177 198.19 117.088 197.871 117.087C197.34 117.085 196.854 117.222 196.39 117.412C195.799 117.649 195.224 118.042 194.745 118.386C194.341 118.676 193.733 119.268 193.306 119.498L192.146 119.651C192.242 119.386 192.03 118.864 192.099 118.548C193.018 114.181 194.643 99.3763 194.569 92.1287C194.401 75.6072 199.416 69.0378 187.312 54.6038C184.269 50.9748 179.638 46.719 175.664 44.0133C177.757 44.5521 179.384 44.7922 181.735 45.9366C176.564 41.8151 171.975 39.5658 168.096 37.5941C169.963 37.8783 172.346 38.4744 174.29 38.7789C161.755 32.6656 153.214 31.9476 145.015 32.0028L142.942 32.222C139.335 32.2453 137.862 32.4366 135.276 32.9768C127.194 32.62 115.845 31.6326 104.422 37.0992C106.039 37.0099 107.408 36.9496 108.7 36.9368C103.584 39.2892 97.8872 42.3249 91.4997 49.1422C92.9452 48.3598 94.2123 47.6836 95.448 47.1134C90.5699 51.6588 85.1461 58.8554 82.5336 65.438C79.6692 72.6559 80.2991 104.472 81.4149 109.993C82.4441 115.085 81.4561 118.39 81.3455 118.832C81.3044 118.809 81.3044 118.77 81.2632 118.751C80.5267 118.402 79.3793 118.008 78.4931 118.399C77.6137 118.859 77.2947 119.67 77.1223 120.535C76.8089 121.963 77.1634 123.31 77.4515 124.592C77.9113 126.731 78.4582 128.814 78.9592 130.435C79.142 131.026 79.3701 131.619 79.5901 132.302C79.8083 132.974 80.0041 133.692 80.111 134.466C80.2186 135.239 80.2633 136.115 80.3303 136.928C80.3909 137.676 80.3715 138.35 80.4397 139.092C80.4867 139.635 80.4985 140.186 80.6313 140.715C80.7771 141.268 81.0011 141.727 81.2847 142.165C81.3083 142.2 81.3459 142.295 81.367 142.328C81.4258 142.778 81.9056 143.412 81.9138 144.394C81.9196 145.155 82.1878 146.054 82.1072 146.935C82.0284 147.816 81.8996 148.68 81.778 149.507C81.6886 150.103 81.6192 150.672 81.601 151.186C81.5832 151.552 81.6304 151.986 81.6833 152.403C81.8009 153.374 82.116 154.27 82.7148 155.169C83.0657 155.704 82.8682 155.736 83.4486 156.016C83.9448 156.25 84.3928 156.417 84.8786 156.478C85.5103 156.558 86.1488 156.642 86.663 156.802C87.3664 157.021 87.8847 157.174 88.4361 157.601C89.1985 158.192 89.8448 158.6 90.9429 159.395C91.0305 159.667 91.2116 159.88 91.3015 160.175C91.6078 161.179 92.0826 162.416 92.6176 163.583C93.4317 165.357 94.5826 167.364 95.6631 169.211L95.7042 170.075C99.8051 188.065 96.8744 202.806 88.9689 214.023C102.601 241.537 124.062 239.05 143.006 239.964C161.587 240.86 189.734 224.806 187.84 213.861C181.468 203.203 180.214 188.229 181.968 175.031C182.461 171.437 182.848 170.022 183.727 168.187C184.534 166.421 185.075 165.435 185.834 163.883C186.882 161.735 187.445 159.551 187.808 157.715C187.861 157.456 187.925 157.13 188.033 156.802C188.353 156.578 188.755 156.377 188.947 156.255C189.513 155.895 190.35 155.406 191.332 155.038C191.624 154.93 191.924 154.829 192.237 154.632C192.573 154.413 192.842 154.057 193.06 153.739C193.659 152.881 194.048 151.904 194.211 150.898C194.364 149.937 194.533 149.105 194.502 148.37C194.5 148.284 194.505 148.217 194.502 148.127C194.461 147.175 194.19 145.954 194.293 144.799C194.395 143.658 194.638 142.527 194.869 141.715C195.1 140.904 195.255 140.686 195.408 140.271L195.403 140.27Z" fill="black"/>
<path d="M144.53 32.0014C140.934 32.0246 137.841 32.3522 135.264 32.891C126.652 31.8525 113.078 32.2942 102.215 38.3905C103.827 38.3014 105.192 38.2408 106.48 38.2286C101.38 40.5728 95.5443 44.6175 89.1766 51.411C90.6178 50.6312 91.9629 49.9573 93.1947 49.3891C88.3316 53.9188 84.4005 59.4085 81.796 65.9684C78.9402 73.1614 79.8636 104.867 80.976 110.369C82.002 115.444 81.3323 118.42 81.2221 118.861C81.1811 118.838 81.1811 118.799 81.1401 118.78C80.4057 118.432 79.3995 118.148 78.5159 118.537C77.6392 118.995 77.2937 119.941 77.1219 120.802C76.8095 122.225 77.1629 123.649 77.4501 124.926C77.9085 127.059 78.5088 129.053 79.0082 130.668C79.1905 131.257 79.3634 131.929 79.582 132.609C79.7995 133.279 79.9671 134.022 80.0738 134.793C80.1811 135.564 80.2532 136.329 80.32 137.138C80.3803 137.884 80.4179 138.664 80.4841 139.403C80.531 139.944 80.5949 140.493 80.7303 141.02C80.8756 141.572 81.1036 142.039 81.3863 142.476C81.4098 142.511 81.4461 142.522 81.4684 142.557C81.527 143.005 81.891 143.681 81.9003 144.66C81.9061 145.418 82.1477 146.289 82.068 147.167C81.9894 148.045 81.8611 148.931 81.7397 149.755C81.6507 150.349 81.5932 150.941 81.5756 151.453C81.5579 151.818 81.6108 152.169 81.6577 152.585C81.7749 153.553 81.9127 154.46 82.5096 155.356C82.8595 155.889 83.2111 156.124 83.7893 156.403C84.284 156.636 85.0597 156.888 85.5441 156.948C86.1737 157.029 86.8355 157.113 87.3481 157.272C88.0494 157.49 88.5379 157.764 88.9062 158C88.5575 157.739 88.0271 157.377 87.3481 157.11C86.8305 156.909 86.2514 156.746 85.6261 156.625C85.1525 156.53 84.3576 156.307 83.9533 156.08C83.478 155.825 83.2209 155.61 82.9195 155.113C82.409 154.255 82.3178 153.47 82.2317 152.585C82.1696 151.979 82.1907 151.325 82.2317 150.806C82.2552 150.496 82.2786 150.201 82.3138 149.836C82.3964 149.051 82.4591 148.132 82.4779 147.248C82.4956 146.363 82.2177 145.518 82.1461 144.74C82.0647 143.852 81.6526 143.198 81.5503 142.719C81.7918 143.065 82.045 143.397 82.2883 143.689C83.0028 144.551 83.5561 145.249 83.9284 145.792C84.3006 146.335 84.5022 146.681 84.5022 146.681C84.5022 146.681 84.3557 146.353 84.0099 145.792C83.6646 145.231 83.1313 144.425 82.4518 143.527C82.1775 143.164 81.8065 142.828 81.5497 142.395C81.293 141.962 81.0843 141.457 80.9759 140.939C80.8686 140.443 80.8399 139.87 80.8118 139.322C80.7707 138.591 80.7649 137.895 80.7297 137.138C80.6946 136.344 80.6529 135.506 80.5656 134.712C80.4789 133.919 80.3751 133.186 80.1553 132.448C79.8212 131.328 79.5276 130.224 79.2533 129.294C78.863 127.97 78.4039 126.474 78.0232 124.846C77.937 124.467 77.8638 124.098 77.777 123.713C78.015 124.313 78.3092 124.61 78.761 125.088C79.9676 126.366 80.8112 125.169 80.8112 125.169C81.795 125.919 83.4755 128.292 86.3876 134.631C86.1672 134.201 85.7879 134.035 85.4035 133.823C84.7005 133.434 83.3102 134.093 83.1894 135.117C82.9796 136.895 84.4102 141.746 84.5835 140.778C84.7136 140.051 83.7979 137.616 84.3373 136.492C84.6181 135.906 85.7563 135.751 86.6335 136.087C86.865 136.176 86.7801 135.533 86.6335 135.116C86.6297 135.099 86.6374 135.048 86.6335 135.036C84.3875 129.122 82.308 124.992 80.5653 122.985C79.5331 121.797 78.4459 121.173 77.9412 121.206C77.7366 121.224 77.6083 121.566 77.5309 121.853C77.5283 121.542 77.5486 121.27 77.6129 120.964C77.794 120.152 78.0701 119.279 78.761 118.942C79.4131 118.583 80.2661 118.777 80.9751 119.104C84.0335 120.511 84.9858 122.591 86.3875 125.129C87.0767 126.377 88.5416 130.419 89.3807 133.742C88.9569 130.176 87.9355 127.137 87.5765 126.059L92.2918 126.139C92.3328 127.063 92.4084 127.974 92.62 128.889C92.9523 130.351 93.6676 131.81 94.8342 132.852C96.4017 134.216 98.412 134.777 100.328 135.278C103.438 136.11 106.634 136.485 109.841 136.491C114.061 136.503 118.3 136.198 122.47 135.521C123.95 135.281 125.444 134.988 126.898 134.55C127.386 134.404 127.894 134.291 128.374 134.065C128.667 133.937 128.996 133.732 129.276 133.418C130.047 132.477 130.401 131.334 130.67 130.264C130.995 129.021 131.173 127.778 131.408 126.543C131.572 125.677 131.541 124.718 131.326 123.875C133.773 122.065 136.748 121.854 138.215 121.853C139.741 121.851 142.296 122.402 144.693 123.632C144.697 123.98 144.711 124.339 144.775 124.683C145.027 125.915 145.335 127.165 145.677 128.403C145.961 129.47 146.288 130.627 147.071 131.558C147.356 131.868 147.679 132.081 147.973 132.204C148.457 132.424 148.96 132.55 149.449 132.689C150.909 133.108 152.395 133.359 153.878 133.579C158.057 134.201 162.287 134.453 166.506 134.388C169.713 134.342 172.921 133.966 176.019 133.094C177.929 132.568 179.965 131.891 181.513 130.506C182.666 129.448 183.333 128.009 183.646 126.543C183.847 125.617 183.95 124.646 183.974 123.713L190.448 122.338C189.709 123.757 189.072 125.936 188.484 128.242C189.324 125.999 190.666 123.274 191.518 121.853C191.731 121.497 192.277 120.65 192.83 120.154C193.385 119.659 194.015 119.166 194.716 118.699C195.2 118.378 195.722 118.088 196.274 117.89C197 117.647 197.828 117.362 198.407 117.728C198.789 117.923 199.069 118.319 199.227 118.779C199.06 118.7 198.826 118.695 198.571 118.699C197.971 118.71 197.101 118.967 196.11 119.75C194.09 121.346 192.306 124.866 189.55 133.498C189.509 133.628 189.509 133.771 189.468 133.903C189.433 134.138 189.474 134.442 189.632 134.389C191.071 133.891 192.158 134.371 192.338 135.521C192.529 136.738 190.988 138.892 191.354 139.16C191.73 139.435 192.244 138.277 192.666 137.3C193.144 136.194 193.535 135.204 193.486 134.308C193.37 132.175 191.727 131.084 190.37 132.367C193.531 124.453 194.937 122.7 195.947 122.015C195.947 122.015 196.356 122.977 197.833 122.015C198.485 121.59 199.162 121.083 199.473 120.398C199.54 121.479 199.339 122.56 199.145 123.632C198.743 125.812 198.148 127.817 197.586 129.455C197.415 129.957 197.22 130.503 197.013 131.073C196.755 131.783 196.591 132.535 196.439 133.337C196.286 134.14 196.138 135.016 196.029 135.844C195.926 136.612 195.885 137.356 195.782 138.109C195.706 138.661 195.595 139.228 195.454 139.726C195.318 140.235 195.051 140.629 194.716 141.02C194.381 141.411 193.997 141.831 193.65 142.153C193.225 142.542 192.833 142.863 192.502 143.204C192.171 143.546 191.893 143.824 191.682 144.094C191.9 143.845 192.254 143.594 192.584 143.285C192.929 142.961 193.288 142.607 193.732 142.233C194.094 141.931 194.516 141.576 194.88 141.182C195.245 140.788 195.594 140.369 195.782 139.807C195.952 139.287 196.014 138.738 196.11 138.19C196.242 137.441 196.392 136.69 196.521 135.925C196.657 135.12 196.762 134.277 196.931 133.499C197.1 132.721 197.318 132.005 197.587 131.316C197.973 130.319 198.296 129.343 198.571 128.485C199.013 127.108 199.43 125.456 199.719 123.713C199.937 122.423 200.133 121.047 199.883 119.67C199.743 118.812 199.462 117.857 198.653 117.405C198.352 117.252 197.987 117.164 197.669 117.162C197.139 117.16 196.655 117.377 196.193 117.567C195.603 117.803 195.03 118.114 194.553 118.457C194.15 118.746 193.839 119.044 193.487 119.346L192.257 119.508C192.353 119.243 192.437 118.934 192.503 118.618C193.419 114.266 195.856 99.799 195.783 92.5764C195.616 76.1116 199.65 69.2739 187.582 54.8885C184.548 51.272 180.966 48.0419 177.004 45.3456C179.09 45.8825 181.302 46.7122 183.646 47.8526C178.492 43.7453 174.064 40.9215 170.197 38.9565C172.058 39.2397 173.917 39.5426 175.855 39.8462C163.358 33.7538 152.704 31.9467 144.53 32.0014ZM163.883 62.1673C168.246 62.1711 171.815 63.0875 173.97 65.8875C180.238 74.0328 181.989 80.0154 182.745 86.9148C183.5 93.8141 183.351 98.8664 185.779 102.685C188.037 106.237 188.526 116.931 188.157 119.911L183.319 120.397C183.08 119.986 182.848 119.669 182.499 119.345C181.437 118.368 180.093 117.748 178.808 117.243C176.605 116.369 174.236 115.976 171.92 115.706C169.94 115.473 168.005 115.332 166.016 115.301C164.439 115.278 162.809 115.392 161.259 115.544C159.378 115.729 157.546 115.963 155.683 116.272C153.963 116.557 152.213 116.878 150.517 117.323C149.864 117.494 149.193 117.733 148.549 117.97C148.106 118.13 147.67 118.322 147.237 118.617C146.173 119.356 145.408 120.392 145.022 121.61C144.92 121.93 144.828 122.246 144.776 122.58C142.814 121.604 140.095 121.03 137.97 121.043C135.771 121.061 132.519 121.854 131 122.904C130.558 121.926 129.851 121.006 128.949 120.397C128.513 120.107 128 119.985 127.555 119.831C126.908 119.601 126.242 119.427 125.587 119.265C123.885 118.842 122.227 118.476 120.503 118.213C118.636 117.929 116.729 117.725 114.845 117.566C113.294 117.435 111.747 117.361 110.17 117.404C108.182 117.462 106.16 117.55 104.184 117.809C101.872 118.11 99.569 118.605 97.3777 119.507C96.0997 120.029 94.7362 120.619 93.6874 121.61C93.0182 122.247 92.5692 123.052 92.3754 123.956L89.5052 123.794C88.8348 121.941 86.8978 116.232 87.3748 113.041C87.8414 109.91 90.0403 109.883 90.327 105.358C90.6136 100.832 89.5012 84.21 90.9008 79.5589C92.3006 74.9077 98.5051 65.4405 104.022 63.7886C113.559 60.9326 121.346 66.4418 135.265 65.8913C144.4 65.53 155.555 62.1603 163.885 62.1711L163.883 62.1673ZM163.638 116.113C164.406 116.067 165.172 116.096 165.935 116.113C167.9 116.142 169.891 116.207 171.839 116.437C174.126 116.709 176.386 117.136 178.481 117.974C179.733 118.478 180.997 119.042 181.925 119.915C182.653 120.594 183.14 121.539 183.155 122.503C183.185 123.824 183.103 125.124 182.827 126.385C182.524 127.737 181.942 129.05 180.941 129.943C179.583 131.191 177.742 131.826 175.857 132.369C172.842 133.22 169.659 133.533 166.508 133.582C162.327 133.646 158.173 133.47 154.044 132.854C152.576 132.635 151.103 132.369 149.697 131.965C149.226 131.828 148.729 131.675 148.303 131.48C148.029 131.344 147.769 131.236 147.647 131.075C146.991 130.332 146.719 129.296 146.417 128.245C146.376 128.102 146.37 127.903 146.336 127.759C146.438 127.473 146.402 126.996 146.336 126.384C146.772 126.165 147.019 125.666 146.91 125.171C146.799 124.67 146.342 124.294 145.844 124.282C145.727 123.963 145.642 123.679 145.515 123.473C145.516 123.415 145.513 123.369 145.515 123.311V123.068C145.551 122.655 145.637 122.252 145.762 121.855C146.096 120.801 146.818 119.895 147.73 119.267C148.058 119.035 148.45 118.862 148.878 118.701C149.486 118.476 150.124 118.304 150.764 118.135C152.425 117.699 154.06 117.367 155.766 117.084C157.613 116.778 159.48 116.538 161.343 116.356C162.112 116.281 162.871 116.162 163.638 116.113ZM110.172 118.135C110.554 118.124 110.938 118.131 111.32 118.135C112.468 118.153 113.609 118.281 114.764 118.378C116.629 118.536 118.49 118.743 120.341 119.025C122.051 119.286 123.758 119.581 125.425 119.996C126.067 120.156 126.7 120.345 127.311 120.561C127.741 120.717 128.128 120.9 128.459 121.127C129.379 121.743 130.079 122.666 130.427 123.715C130.601 124.242 130.742 124.782 130.756 125.333C130.632 125.541 130.458 125.822 130.345 126.142C129.842 126.159 129.384 126.524 129.279 127.031C129.178 127.521 129.505 127.945 129.935 128.163C129.875 128.782 129.912 129.332 130.017 129.619C129.982 129.768 129.892 129.876 129.853 130.024C129.566 131.079 129.27 132.183 128.623 132.935C128.504 133.098 128.321 133.199 128.049 133.34C127.627 133.54 127.125 133.683 126.655 133.825C125.255 134.248 123.856 134.476 122.391 134.715C118.271 135.384 114.026 135.694 109.844 135.685C106.693 135.68 103.603 135.365 100.577 134.553C98.6846 134.034 96.7036 133.438 95.3289 132.208C94.3164 131.328 93.7642 130.079 93.4428 128.73C93.148 127.473 93.1017 126.089 93.1146 124.768C93.117 123.804 93.5442 122.868 94.2627 122.18C95.1792 121.295 96.3802 120.759 97.6249 120.239C99.709 119.374 101.984 118.923 104.267 118.621C106.212 118.366 108.207 118.191 110.172 118.135Z" fill="black"/>
<path d="M118 185.387C118 185.387 127.171 199.71 140.535 200.097C153.898 200.484 167 185 167 185C167 185 156.912 201 142.107 201C127.302 201 118 185.387 118 185.387Z" fill="black"/>
</svg>
