<svg width="1180" height="288" viewBox="0 0 1180 288" fill="none" xmlns="http://www.w3.org/2000/svg">
<path d="M825.17 134.266V91.6111H867.843V122.028C879.686 98.6302 903.407 86.8596 929.036 86.8596C969.783 86.8596 1000.56 115.656 1000.56 156.008V281.993H956.752V172.152C956.752 145.281 940.95 127.913 914.079 127.913C888.396 127.913 869.085 146.073 869.085 173.736V282.029H825.224L825.17 134.266Z" fill="#091D26"/>
<path d="M725.336 87.2581C699.257 87.2581 673.574 99.5147 660.13 121.238V5.47559L616.287 5.47559V282.031H657.772V248.069C670.37 272.961 698.069 286.783 725.336 286.783C779.06 286.783 815.794 242.526 815.794 186.769C815.794 131.515 779.06 87.2581 725.336 87.2581ZM715.456 246.09C682.664 246.09 658.96 219.615 658.96 186.823C658.96 154.03 682.358 127.951 715.456 127.951C748.554 127.951 771.951 154.03 771.951 186.823C771.951 219.615 748.248 246.09 715.456 246.09Z" fill="#091D26"/>
<path d="M406.034 200.243C407.113 192.059 407.403 183.79 406.898 175.55C406.301 165.404 404.271 155.394 400.868 145.817C388.108 110.199 356.575 86.4242 313.668 86.0642H312.804C257.011 86.0642 216.785 131.059 216.785 186.853C216.785 242.952 257.875 288.001 315.558 288.001C354.29 288.001 388.252 271.011 405.242 233.071C391.334 231.825 377.801 227.889 365.394 221.48C356.845 238.021 339.262 249.665 316.35 249.665C286.726 249.665 264.156 230.713 259.063 200.279L406.034 200.243ZM260.646 164.247C266.982 140.4 283.504 124.994 307.891 123.32C309.367 123.212 310.879 123.158 312.409 123.158C340.054 123.158 358.627 138.96 364.153 164.247L260.646 164.247Z" fill="#091D26"/>
<path d="M605.777 200.243C606.857 192.059 607.146 183.79 606.641 175.55C606.044 165.404 604.014 155.394 600.612 145.817C587.851 110.199 556.319 86.4242 513.394 86.0642H512.53C456.826 86.0642 416.529 131.059 416.529 186.853C416.529 242.952 457.618 288.001 515.302 288.001C554.015 288.001 587.995 271.011 604.985 233.071C591.077 231.828 577.543 227.892 565.138 221.48C556.571 238.021 539.005 249.665 516.093 249.665C486.469 249.665 463.899 230.713 458.806 200.279L605.777 200.243ZM460.39 164.247C466.725 140.4 483.247 124.994 507.616 123.32C509.11 123.212 510.604 123.158 512.152 123.158C539.797 123.158 558.371 138.96 563.896 164.247L460.39 164.247Z" fill="#091D26"/>
<path d="M244.106 102.285C242.612 103.599 241.154 104.948 239.751 106.352L239.337 106.784C239.085 107.018 238.851 107.27 238.617 107.504C238.077 108.044 237.554 108.602 237.032 109.16C229.378 117.356 223.067 126.71 218.333 136.877C212.669 134.52 206.577 133.367 200.443 133.493C168.443 133.493 158.562 164.36 158.562 197.494L158.562 282.084H114.719L114.719 91.612H157.374V124.008C166.031 103.455 183.057 88.4443 207.157 88.4443C224.147 88.4443 236.799 93.5737 243.908 101.871L244.106 102.285Z" fill="#091D26"/>
<path d="M141.626 16.1266C139.095 18.2863 136.695 20.5601 134.427 22.9478L133.185 24.1897L132.213 25.2515C126.423 31.6223 121.43 38.6756 117.347 46.2551C112.08 43.0712 106.025 41.4311 99.8708 41.5216C80.505 41.5216 70.2287 53.3643 70.2287 77.0855V91.6998H105.486V131.295L70.1742 131.295L70.1742 282.208H26.4396L26.4396 131.115H0.306641L0.306641 91.5198H26.4396L26.4396 75.8437C26.4396 28.4372 54.4806 0.000468179 96.3617 0.000468179C119.849 -0.0715235 134.841 8.17152 141.626 16.1266Z" fill="#091D26"/>
<path d="M1053.83 5.47559L1009.97 5.47559V282.031H1053.83V5.47559Z" fill="#091D26"/>
<path d="M1179.46 109.629C1179.46 106.479 1179.19 103.347 1178.87 100.252C1178.54 97.156 1178.22 94.4563 1177.71 91.6306H1129.64C1130.4 94.4698 1131 97.3477 1131.44 100.252C1131.6 101.278 1131.75 102.321 1131.86 103.347C1132.35 107.532 1132.35 111.761 1131.86 115.946C1129.5 135.561 1120.15 153.669 1105.51 166.941C1090.88 180.213 1071.95 187.758 1052.2 188.189H1040.1V221.468H1052.2C1069.9 221.865 1087.01 227.978 1100.95 238.892C1114.9 249.807 1124.95 264.939 1129.59 282.031H1177.77C1177.07 277.787 1176.16 273.582 1175.03 269.432C1174.92 269 1174.78 268.568 1174.65 268.136C1165.53 239.088 1144.24 220.586 1116.77 208.275C1113.88 206.961 1110.92 205.809 1107.9 204.676C1110.92 203.632 1113.88 202.48 1116.77 201.166C1144.24 188.855 1165.53 170.353 1174.65 141.305C1174.78 140.873 1174.92 140.441 1175.03 140.009C1177.72 130.096 1179.2 119.896 1179.46 109.629Z" fill="#091D26"/>
</svg>
