<svg width="500" height="500" viewBox="0 0 500 500" fill="none" xmlns="http://www.w3.org/2000/svg">
<path d="M0.036532 104.601V234.414C7.48179 232.388 15.0365 230.736 22.6642 229.573C25.3649 229.123 28.1022 228.747 30.8029 228.447C41.7883 227.096 52.8832 227.096 63.8686 228.447C108.175 233.926 149.708 253.404 182.774 284.178C215.839 314.952 238.832 355.52 248.54 400.293H345.985C354.562 360.887 373.467 324.596 400.584 295.399C427.737 266.201 462.08 245.147 500 234.527V104.789C488.869 106.665 477.81 109.142 466.898 112.182C465.766 112.482 464.635 112.858 463.504 113.195C387.226 137.852 338.65 195.309 306.314 269.504C302.847 277.31 299.854 285.304 297.117 293.447C294.38 285.266 291.35 277.31 287.883 269.504C255.547 195.346 206.971 137.852 130.693 113.195C129.562 112.858 128.431 112.482 127.299 112.182C101.095 104.826 74.1241 100.773 46.9708 100.098C38.6861 100.098 30.4744 100.811 22.3357 101.711C14.1971 102.575 7.40876 103.325 0 104.676" fill="#091D26"/>
</svg>
