<svg width="217" height="116" viewBox="0 0 217 116" fill="none" xmlns="http://www.w3.org/2000/svg">
<path fill-rule="evenodd" clip-rule="evenodd" d="M98.9463 109.28C102.573 113.44 107.693 115.52 114.306 115.52C120.92 115.52 126.04 113.44 129.666 109.28C133.293 105.013 135.106 98.6667 135.106 90.24V25.28C135.106 16.8533 133.293 10.56 129.666 6.4C126.04 2.13333 120.92 0 114.306 0C107.693 0 102.573 2.13333 98.9463 6.4C95.3196 10.56 93.5063 16.8533 93.5063 25.28V90.24C93.5063 98.6667 95.3196 105.013 98.9463 109.28ZM118.946 99.84C117.88 101.44 116.333 102.24 114.306 102.24C112.28 102.24 110.733 101.44 109.666 99.84C108.6 98.1333 108.066 95.2533 108.066 91.2V24.16C108.066 20.2133 108.6 17.44 109.666 15.84C110.733 14.1333 112.28 13.28 114.306 13.28C116.333 13.28 117.88 14.1333 118.946 15.84C120.013 17.44 120.546 20.2133 120.546 24.16V91.2C120.546 95.2533 120.013 98.1333 118.946 99.84ZM136.719 1.76L149.839 113.76H167.439L174.319 52.64C175.279 44 175.865 36.2133 176.079 29.28H176.559C176.772 36.96 177.252 44.7467 177.999 52.64L183.919 113.76H201.039L216.239 1.76H201.839L194.479 68.64C193.412 77.7067 192.719 84.96 192.399 90.4H191.919L183.439 1.76H169.679L160.239 90.88H159.759C159.652 86.8267 159.012 79.04 157.839 67.52L151.439 1.76H136.719ZM87.9238 113.76H72.7238L64.0838 67.84H59.6037V113.76H45.0438V1.76H63.1238C78.2704 1.76 85.8438 10.56 85.8438 28.16V41.44C85.8438 46.88 85.0437 51.52 83.4438 55.36C81.9504 59.2 80.0837 61.8667 77.8438 63.36L87.9238 113.76ZM71.2838 27.52C71.2838 22.9333 70.5904 19.68 69.2038 17.76C67.9238 15.7333 65.8971 14.72 63.1238 14.72H59.6037V54.88H63.1238C65.8971 54.88 67.9238 53.92 69.2038 52C70.5904 49.9733 71.2838 46.6667 71.2838 42.08V27.52ZM4.48 109.6C7.46667 113.44 11.36 115.36 16.16 115.36C18.9333 115.36 21.4933 114.72 23.84 113.44C26.1867 112.053 27.9467 110.453 29.12 108.64L31.84 114.56H37.12V52.64H18.72V63.2H25.44V92.96C25.44 97.3333 24.8533 100.427 23.68 102.24C22.5067 104.053 20.8 104.96 18.56 104.96C16.32 104.96 14.6133 104.053 13.44 102.24C12.2667 100.427 11.68 97.3333 11.68 92.96V22.56C11.68 18.1867 12.2667 15.0933 13.44 13.28C14.6133 11.4667 16.32 10.56 18.56 10.56C20.8 10.56 22.5067 11.4667 23.68 13.28C24.8533 15.0933 25.44 18.1867 25.44 22.56V34.56H37.12V23.36C37.12 15.5733 35.4667 9.76 32.16 5.92C28.96 2.08 24.4267 0.159998 18.56 0.159998C12.6933 0.159998 8.10667 2.08 4.8 5.92C1.6 9.76 0 15.5733 0 23.36V92.16C0 99.84 1.49333 105.653 4.48 109.6Z" fill="url(#paint0_linear_1649_5229)"/>
<defs>
<linearGradient id="paint0_linear_1649_5229" x1="216.165" y1="57.7317" x2="0.0739122" y2="57.7317" gradientUnits="userSpaceOnUse">
<stop stop-color="#FBF9C6"/>
<stop offset="0.26" stop-color="#E3D7FF"/>
<stop offset="0.575" stop-color="#68FFE4"/>
<stop offset="0.99" stop-color="#F1EBDD"/>
</linearGradient>
</defs>
</svg>
