<svg width="240" height="116" viewBox="0 0 240 116" fill="none" xmlns="http://www.w3.org/2000/svg">
<path fill-rule="evenodd" clip-rule="evenodd" d="M157.541 109.12C161.381 113.6 166.981 115.84 174.341 115.84C181.808 115.84 187.461 113.6 191.301 109.12C195.141 104.533 197.061 97.76 197.061 88.8C197.061 84.2133 196.635 80.2667 195.781 76.96C195.035 73.6533 193.648 70.1867 191.621 66.56C189.701 62.9333 186.661 58.24 182.501 52.48C178.341 46.8267 175.461 42.7733 173.861 40.32C172.368 37.76 171.355 35.5733 170.821 33.76C170.395 31.84 170.181 29.28 170.181 26.08C170.181 22.4533 170.555 19.8933 171.301 18.4C172.048 16.9067 173.221 16.16 174.821 16.16C176.528 16.16 177.755 16.9067 178.501 18.4C179.248 19.7867 179.621 22.24 179.621 25.76V36H197.221V27.04C197.221 24.0818 197.007 21.3618 196.578 18.88H209.256V113.92H226.856V18.88H239.496V1.91999H196.456V18.2106C195.567 13.572 193.902 9.79512 191.461 6.88C187.621 2.29333 182.075 0 174.821 0C167.675 0 162.181 2.34666 158.341 7.04C154.501 11.6267 152.581 18.3467 152.581 27.2C152.581 31.5733 152.955 35.36 153.701 38.56C154.448 41.76 155.781 45.12 157.701 48.64C159.621 52.16 162.608 56.7467 166.661 62.4C170.928 68.48 173.861 72.8 175.461 75.36C177.061 77.92 178.128 80.2133 178.661 82.24C179.195 84.2667 179.461 86.88 179.461 90.08C179.461 93.4933 179.035 95.9467 178.181 97.44C177.435 98.9333 176.155 99.68 174.341 99.68C172.528 99.68 171.248 98.9867 170.501 97.6C169.755 96.1067 169.381 93.7067 169.381 90.4V78.72H151.781V89.28C151.781 98.0267 153.701 104.64 157.541 109.12ZM150.234 113.92H118.394V1.91999H149.914V15.84H132.954V50.08H147.994V64.16H132.954V99.84H150.234V113.92ZM66.9688 1.91999L80.0888 113.92H99.1288L114.329 1.91999H99.9287L92.7288 68.16C91.6621 77.5467 90.9154 86.1867 90.4888 94.08H89.8488C89.6354 85.2267 89.0488 76.5867 88.0888 68.16L81.6888 1.91999H66.9688ZM22.8563 113.92V1.91999H35.6563L52.4563 87.52H52.7763C51.7096 65.76 51.1763 52.4267 51.1763 47.52V1.91999H62.2162V113.92H49.4163L32.6163 28.32H32.2963C33.3629 50.6133 33.8963 63.9467 33.8963 68.32V113.92H22.8563ZM0 113.92H11.68V1.91999H0V113.92Z" fill="url(#paint0_linear_1649_5191)"/>
<defs>
<linearGradient id="paint0_linear_1649_5191" x1="239.414" y1="57.8916" x2="0.0818618" y2="57.8916" gradientUnits="userSpaceOnUse">
<stop stop-color="#FBF9C6"/>
<stop offset="0.26" stop-color="#E3D7FF"/>
<stop offset="0.575" stop-color="#68FFE4"/>
<stop offset="0.99" stop-color="#F1EBDD"/>
</linearGradient>
</defs>
</svg>
