<svg width="172" height="116" viewBox="0 0 172 116" fill="none" xmlns="http://www.w3.org/2000/svg">
<path fill-rule="evenodd" clip-rule="evenodd" d="M4.8 109.44C8.10667 113.28 12.6933 115.2 18.56 115.2C24.4267 115.2 28.96 113.28 32.16 109.44C35.4667 105.6 37.12 99.7867 37.12 92V23.2C37.12 15.4133 35.4667 9.6 32.16 5.76C28.96 1.92 24.4267 0 18.56 0C12.6933 0 8.10667 1.92 4.8 5.76C1.6 9.6 0 15.4133 0 23.2V92C0 99.7867 1.6 105.6 4.8 109.44ZM23.68 102.08C22.5067 103.893 20.8 104.8 18.56 104.8C16.32 104.8 14.6133 103.893 13.44 102.08C12.2667 100.267 11.68 97.1733 11.68 92.8V22.4C11.68 18.0267 12.2667 14.9333 13.44 13.12C14.6133 11.3067 16.32 10.4 18.56 10.4C20.8 10.4 22.5067 11.3067 23.68 13.12C24.8533 14.9333 25.44 18.0267 25.44 22.4V92.8C25.44 97.1733 24.8533 100.267 23.68 102.08ZM54.2825 113.6L41.1625 1.6H55.8825L62.2825 67.36C63.4558 78.88 64.0958 86.6667 64.2025 90.72H64.6825L74.1225 1.6H87.8825L96.3625 90.24H96.8425C97.1625 84.8 97.8558 77.5467 98.9225 68.48L106.283 1.6H120.683L105.483 113.6H88.3625L82.4425 52.48C81.6958 44.5867 81.2158 36.8 81.0025 29.12H80.5225C80.3092 36.0533 79.7225 43.84 78.7625 52.48L71.8825 113.6H54.2825ZM123.819 113.6V1.6H141.579L156.779 78.72H157.099C156.885 75.3067 156.779 72.96 156.779 71.68C156.139 61.2267 155.765 53.2267 155.659 47.68L154.859 1.6H171.339V113.6H153.579L138.379 36.48H138.059L139.499 68L140.299 113.6H123.819Z" fill="url(#paint0_linear_1649_5200)"/>
<defs>
<linearGradient id="paint0_linear_1649_5200" x1="171.28" y1="57.5718" x2="0.058565" y2="57.5718" gradientUnits="userSpaceOnUse">
<stop stop-color="#FBF9C6"/>
<stop offset="0.26" stop-color="#E3D7FF"/>
<stop offset="0.575" stop-color="#68FFE4"/>
<stop offset="0.99" stop-color="#F1EBDD"/>
</linearGradient>
</defs>
</svg>
