<svg width="223" height="116" viewBox="0 0 223 116" fill="none" xmlns="http://www.w3.org/2000/svg">
<path fill-rule="evenodd" clip-rule="evenodd" d="M4.48 109.6C7.57333 113.333 12 115.2 17.76 115.2C23.52 115.2 27.8933 113.333 30.88 109.6C33.9733 105.867 35.52 100.267 35.52 92.8C35.52 87.4667 35.2 83.0933 34.56 79.68C34.0267 76.2667 32.9067 72.6933 31.2 68.96C29.4933 65.12 26.8267 60 23.2 53.6C19.68 47.4133 17.2267 42.9333 15.84 40.16C14.56 37.28 13.6533 34.6133 13.12 32.16C12.6933 29.6 12.48 26.08 12.48 21.6C12.48 17.5467 12.9067 14.6667 13.76 12.96C14.72 11.2533 16.16 10.4 18.08 10.4C20 10.4 21.3867 11.2533 22.24 12.96C23.2 14.6667 23.68 17.5467 23.68 21.6V34.4H35.36V22.4C35.36 14.9333 33.8667 9.33333 30.88 5.6C27.8933 1.86667 23.6267 0 18.08 0C12.5333 0 8.26667 1.86667 5.28 5.6C2.29333 9.33333 0.8 14.9333 0.8 22.4C0.8 27.3067 1.06667 31.4667 1.6 34.88C2.24 38.1867 3.36 41.6533 4.96 45.28C6.66667 48.8 9.28 53.7067 12.8 60C16.4267 66.5067 18.9333 71.2533 20.32 74.24C21.7067 77.12 22.6133 79.8933 23.04 82.56C23.5733 85.2267 23.84 88.9067 23.84 93.6C23.84 97.76 23.36 100.693 22.4 102.4C21.44 104 19.8933 104.8 17.76 104.8C15.52 104.8 13.92 104 12.96 102.4C12.1067 100.693 11.68 97.76 11.68 93.6V78.4H0V92.8C0 100.267 1.49333 105.867 4.48 109.6ZM42.7938 113.6V1.6H58.1538C64.7671 1.6 69.8871 3.68 73.5138 7.84C77.2471 12 79.1138 18.1867 79.1138 26.4V44.8C79.1138 53.0133 77.2471 59.2 73.5138 63.36C69.8871 67.52 64.7671 69.6 58.1538 69.6H54.4738V113.6H42.7938ZM58.1538 59.2C61.2471 59.2 63.5404 58.1333 65.0338 56C66.6338 53.76 67.4338 50.0267 67.4338 44.8V26.4C67.4338 21.1733 66.6338 17.4933 65.0338 15.36C63.5404 13.12 61.2471 12 58.1538 12H54.4738V59.2H58.1538ZM87.0375 113.6H118.878V99.52H101.598V63.84H116.638V49.76H101.598V15.52H118.558V1.6H87.0375V113.6ZM124.425 113.6V1.6H139.625L155.785 83.04H156.105C155.252 68.64 154.718 56.7467 154.505 47.36L154.185 1.6H167.785V113.6H152.585L136.585 32.16H136.265L136.585 37.6C137.332 52.8533 137.705 62.9867 137.705 68L138.185 113.6H124.425ZM176.637 113.6V1.6H197.438C205.438 1.6 211.571 4 215.838 8.8C220.104 13.4933 222.238 20.48 222.238 29.76V85.44C222.238 94.72 220.104 101.76 215.838 106.56C211.678 111.253 205.544 113.6 197.438 113.6H176.637ZM197.438 97.44C199.891 97.44 201.704 96.64 202.878 95.04C204.051 93.3333 204.637 90.4533 204.637 86.4V28.8C204.637 24.8533 204.051 22.0267 202.878 20.32C201.704 18.6133 199.891 17.76 197.438 17.76H194.238V97.44H197.438Z" fill="url(#paint0_linear_1649_5213)"/>
<defs>
<linearGradient id="paint0_linear_1649_5213" x1="222.162" y1="57.5718" x2="0.0759626" y2="57.5718" gradientUnits="userSpaceOnUse">
<stop stop-color="#FBF9C6"/>
<stop offset="0.26" stop-color="#E3D7FF"/>
<stop offset="0.575" stop-color="#68FFE4"/>
<stop offset="0.99" stop-color="#F1EBDD"/>
</linearGradient>
</defs>
</svg>
