<svg width="219" height="112" viewBox="0 0 219 112" fill="none" xmlns="http://www.w3.org/2000/svg">
<path fill-rule="evenodd" clip-rule="evenodd" d="M11.84 112H23.52V11.2H35.36V0H0V11.2H11.84V112ZM77.6712 112H65.5113L56.3913 64.8H51.1113V112H39.4313V0H54.7913C61.4046 0 66.5246 2.08 70.1513 6.24001C73.8846 10.4 75.7513 16.5867 75.7513 24.8V40C75.7513 45.3333 74.8979 49.8667 73.1913 53.6C71.5912 57.3333 69.7779 59.7867 67.7513 60.96L77.6712 112ZM64.0713 24.8C64.0713 19.5733 63.2713 15.8933 61.6713 13.76C60.1779 11.52 57.8846 10.4 54.7913 10.4H51.1113V54.4H54.7913C57.8846 54.4 60.1779 53.3333 61.6713 51.2C63.2713 48.96 64.0713 45.2267 64.0713 40V24.8ZM79.165 112H93.565L96.285 88H110.205L112.765 112H127.325L113.405 0H94.525L79.165 112ZM108.925 73.92H97.565L101.245 38.72C101.778 33.92 102.418 26.9867 103.165 17.92H103.805C104.445 28.16 104.978 35.0933 105.405 38.72L108.925 73.92ZM130.419 112V0H151.219C159.219 0 165.352 2.4 169.619 7.2C173.885 11.8933 176.019 18.88 176.019 28.16V83.84C176.019 93.12 173.885 100.16 169.619 104.96C165.459 109.653 159.325 112 151.219 112H130.419ZM151.219 95.84C153.672 95.84 155.485 95.04 156.659 93.44C157.832 91.7333 158.419 88.8533 158.419 84.8V27.2C158.419 23.2533 157.832 20.4267 156.659 18.72C155.485 17.0133 153.672 16.16 151.219 16.16H148.019V95.84H151.219ZM218.315 112H183.275V0H217.835V16.96H200.875V46.72H216.235V63.68H200.875V95.04H218.315V112Z" fill="url(#paint0_linear_1649_5221)"/>
<defs>
<linearGradient id="paint0_linear_1649_5221" x1="218.24" y1="55.9725" x2="0.0746218" y2="55.9726" gradientUnits="userSpaceOnUse">
<stop stop-color="#FBF9C6"/>
<stop offset="0.26" stop-color="#E3D7FF"/>
<stop offset="0.575" stop-color="#68FFE4"/>
<stop offset="0.99" stop-color="#F1EBDD"/>
</linearGradient>
</defs>
</svg>
